<svg xmlns="http://www.w3.org/2000/svg" xmlns:xlink="http://www.w3.org/1999/xlink" width="75.973" height="75.982" viewBox="0 0 75.973 75.982"><defs><clipPath id="a"><rect width="75.973" height="75.982" fill="none"/></clipPath></defs><g clip-path="url(#a)"><path d="M81.486,72.05a9.5,9.5,0,1,1-9.5,9.5,9.5,9.5,0,0,1,9.5-9.5" transform="translate(-61.307 -61.359)" fill="#377a4f"/><path d="M281.553,165.054a3.582,3.582,0,0,1-3.242-2.063l-5.582-12.084-.807.007a4.743,4.743,0,0,1-4.051-2.268l-3.4-5.571-.025-.042a3.566,3.566,0,0,1-.15-3.212q.018-.04.039-.078l1.677-3.116a3.881,3.881,0,0,1,3.331-2.346h7.034a1.187,1.187,0,0,0,1.184-1.187,1.248,1.248,0,0,0-.037-.3,2.019,2.019,0,0,0-1.4-1.44l-5.344-1.529a2.321,2.321,0,0,1-1.434-1.149,2.4,2.4,0,0,1-.169-1.874l1.442-4.326A3.568,3.568,0,0,1,274,120.05h6.6a1.187,1.187,0,0,1,0,2.374H274a1.193,1.193,0,0,0-1.131.811l-1.437,4.31,5.343,1.529a4.4,4.4,0,0,1,3.05,3.15,3.644,3.644,0,0,1,.108.87,3.564,3.564,0,0,1-3.558,3.561h-7.034c-.488,0-.958.562-1.235,1.087l-1.658,3.081a1.212,1.212,0,0,0,.062,1.039l3.383,5.54a2.38,2.38,0,0,0,2.029,1.138h.8a2.385,2.385,0,0,1,2.16,1.37l5.58,12.081a1.2,1.2,0,0,0,.8.653,1.153,1.153,0,0,0,.987-.2c.03-.023.061-.044.093-.064a4.716,4.716,0,0,0,1.838-3.752V156.85a1.187,1.187,0,0,1,.181-.63l3.309-5.283c1.685-2.7,2.03-4.812,1.055-6.448l-1.9-3.174a1.186,1.186,0,0,1-.07-.137,2.377,2.377,0,0,1,2.187-3.322H292.5a1.187,1.187,0,1,1,0,2.374h-3.56l1.819,3.041c1.455,2.44,1.091,5.442-1.08,8.924l-3.129,5v1.44a7.073,7.073,0,0,1-2.848,5.7,1.224,1.224,0,0,1-.109.073,3.523,3.523,0,0,1-2.044.653m-10.122-37.507h0m-.012-.007h0" transform="translate(-224.811 -102.236)" fill="#377a4f"/><path d="M225.176,456.363a1.19,1.19,0,0,1-1.187-1.191c0-.071.095-7.123,8.31-7.123a5.114,5.114,0,0,1,3.958,2.035l1.446-.723a1.187,1.187,0,0,1,1.062,2.124l-2.374,1.187a1.187,1.187,0,0,1-1.593-.531,3.234,3.234,0,0,0-2.5-1.718c-5.709,0-5.929,4.269-5.936,4.756a1.184,1.184,0,0,1-1.187,1.183" transform="translate(-190.752 -381.565)" fill="#377a4f"/><path d="M82.925,116.9A34.425,34.425,0,0,1,48.591,84.979a1.187,1.187,0,1,1,2.368-.169A32.051,32.051,0,1,0,82.925,50.424a1.187,1.187,0,0,1,0-2.374,34.426,34.426,0,0,1,0,68.852" transform="translate(-41.378 -40.92)" fill="#377a4f"/><path d="M141.06,335.29a1.194,1.194,0,0,1-.231-.023l-2.7-.534a11.621,11.621,0,0,1-7.8-5.431,23.892,23.892,0,0,1-1.814-4.2c-.154-.433-.3-.843-.454-1.247a1.187,1.187,0,0,1,2.22-.842c.162.426.319.866.47,1.291a22.1,22.1,0,0,0,1.624,3.795,9.24,9.24,0,0,0,6.141,4.291,8.3,8.3,0,0,1-.249-7.855l2.709-5.8a.938.938,0,0,0-.046-.823,1.711,1.711,0,0,0-1.015-.875l-.047-.013-1.543-.445a1.187,1.187,0,1,1,.658-2.281l1.522.439a4.047,4.047,0,0,1,2.563,2.141,3.3,3.3,0,0,1,.063,2.854l-2.719,5.823-.014.029a5.913,5.913,0,0,0,.369,5.93l1.281,1.936a1.187,1.187,0,0,1-.99,1.842m-1.721-10.239h0Z" transform="translate(-108.995 -267.618)" fill="#377a4f"/><path d="M20.179,52.24a1.188,1.188,0,0,1-.935-.456L4.583,33.028A20.649,20.649,0,0,1,.03,19.186a20.433,20.433,0,0,1,5.862-13.2A19.982,19.982,0,0,1,20.185,0h.01A19.947,19.947,0,0,1,34.468,5.984a20.43,20.43,0,0,1,5.861,13.2,20.708,20.708,0,0,1-4.553,13.844h0L21.115,51.784a1.187,1.187,0,0,1-.935.456m.005-49.866A17.624,17.624,0,0,0,7.579,7.654,18.059,18.059,0,0,0,2.4,19.323,18.279,18.279,0,0,0,6.453,31.564L20.179,49.125,33.9,31.566a18.338,18.338,0,0,0,4.053-12.245A18.057,18.057,0,0,0,32.78,7.654a17.59,17.59,0,0,0-12.587-5.28ZM34.84,32.3h0Z" transform="translate(0 0)" fill="#377a4f"/></g></svg>