<svg xmlns="http://www.w3.org/2000/svg" xmlns:xlink="http://www.w3.org/1999/xlink" width="119.847" height="28.18" viewBox="0 0 119.847 28.18">
  <defs>
    <linearGradient id="linear-gradient" x1="0.14" y1="0.476" x2="0.867" y2="0.502" gradientUnits="objectBoundingBox">
      <stop offset="0" stop-color="#90af68"/>
      <stop offset="0.22" stop-color="#6f9b5a"/>
      <stop offset="0.75" stop-color="#25703b"/>
      <stop offset="1" stop-color="#096030"/>
    </linearGradient>
  </defs>
  <g id="ESGCoop_1" transform="translate(-95.65 -95.59)">
    <path id="Caminho_37912" data-name="Caminho 37912" d="M353.2,95.659h-.015a10.2,10.2,0,0,0-10.192,10.19v0a10.2,10.2,0,0,0,10.192,10.19h.017a10.1,10.1,0,0,0,6.179-2.1,1.64,1.64,0,0,0-1.995-2.6,7.038,7.038,0,0,1-.632.433l-.043.023a6.936,6.936,0,0,1-3.516.964h-.009a6.916,6.916,0,1,1,0-13.832h.009a6.875,6.875,0,0,1,3.516.966l.043.023a6.015,6.015,0,0,1,.632.433,1.639,1.639,0,1,0,1.995-2.6,10.1,10.1,0,0,0-6.179-2.1Zm40.482,2.1a1.637,1.637,0,1,0,1.993,2.6,6.917,6.917,0,1,1,4.2,12.411,6.255,6.255,0,0,1-2.893-.939v-.589a1.64,1.64,0,0,0-3.279,0v10.939a1.64,1.64,0,1,0,3.279,0v-6.725a7.965,7.965,0,0,0,2.893.591,10.192,10.192,0,1,0,0-20.384,10.093,10.093,0,0,0-6.194,2.1m-15.449,7.491a1.636,1.636,0,0,0,1.165-2,10.356,10.356,0,0,0-.877-2.221,6.917,6.917,0,0,1,4.952-2.089,7.017,7.017,0,0,1,1.568.179,6.917,6.917,0,0,1-1.575,13.655,6.911,6.911,0,0,1-6.793-5.675,1.641,1.641,0,0,0-1.611-1.348,1.528,1.528,0,0,0-.294.028,1.64,1.64,0,0,0-1.323,1.905,10.218,10.218,0,0,0,1.054,3.01,6.934,6.934,0,0,1-4.956,2.087,6.845,6.845,0,0,1-1.564-.179,6.92,6.92,0,0,1,1.568-13.659,6.81,6.81,0,0,1,1.568.183,6.907,6.907,0,0,1,5.116,4.958,1.641,1.641,0,0,0,1.585,1.218,1.565,1.565,0,0,0,.418-.055M376.506,98.4a10.2,10.2,0,1,0,.006,14.9,10.2,10.2,0,1,0,0-14.894" transform="translate(-194.569 -0.047)" fill="url(#linear-gradient)"/>
    <g id="Grupo_16688" data-name="Grupo 16688" transform="translate(95.65 95.59)">
      <path id="Caminho_37913" data-name="Caminho 37913" d="M107.335,115.124v1.688H95.65V97.01h11.6v1.634h-9.8v7.117h9.39v1.66h-9.39v7.7Z" transform="translate(-95.65 -96.707)" fill="#171c66"/>
      <path id="Caminho_37914" data-name="Caminho 37914" d="M172.374,110.23c-.083,3.966-3.864,5.743-7.576,5.743-3.512,0-7.7-1.453-7.932-5.539l-.015-.222h1.662l.015.194c.194,2.7,3.36,3.934,6.215,3.934s5.752-1.3,5.831-4.145c.075-3-2.906-3.433-5.784-3.851l-.237-.036c-3.23-.4-7.248-.907-7.248-5.11,0-3.678,3.591-5.609,7.137-5.609,4.438,0,7.2,1.967,7.4,5.266l.015.218h-1.717l-.015-.19c-.2-2.675-3.068-3.627-5.688-3.627-2.447,0-5.3,1.022-5.3,3.915s2.818,3.2,5.308,3.488l.384.047c4.022.565,7.625,1.412,7.542,5.526Z" transform="translate(-143.793 -95.59)" fill="#171c66"/>
      <path id="Caminho_37915" data-name="Caminho 37915" d="M254.455,105.432v.209a12.176,12.176,0,0,1-.875,4.956,9,9,0,0,1-8.752,5.47c-5.748,0-9.759-4.207-9.759-10.232s4.113-10.126,9.787-10.126c4.327,0,7.427,2.008,8.728,5.65l.1.277h-1.841l-.055-.126c-1.184-2.748-3.461-4.081-6.951-4.081-4.687.075-7.964,3.531-7.964,8.4s3.2,8.487,7.96,8.487a7.477,7.477,0,0,0,7.807-7.256h-7.625V105.43h9.445Z" transform="translate(-205.324 -95.684)" fill="#171c66"/>
    </g>
  </g>
</svg>