<svg xmlns="http://www.w3.org/2000/svg" width="81.865" height="66.7" viewBox="0 0 81.865 66.7"><g transform="translate(-1.464 -1.464)"><path d="M47.353,79.528H41.562a4.578,4.578,0,0,1-4.351-3.053l-.192-.558a2.577,2.577,0,0,0-2.46-1.7H6.795A2.771,2.771,0,0,1,4,71.473V21a1,1,0,0,1,1-1H6.935a1,1,0,0,1,0,2H6V71.473a.77.77,0,0,0,.795.74H34.559a4.577,4.577,0,0,1,4.351,3.053l.192.558a2.578,2.578,0,0,0,2.46,1.7h5.791a2.578,2.578,0,0,0,2.46-1.7l.192-.558a4.578,4.578,0,0,1,4.351-3.053H82.228a.77.77,0,0,0,.795-.74V43.823a1,1,0,0,1,2,0V71.473a2.771,2.771,0,0,1-2.795,2.74H54.356a2.578,2.578,0,0,0-2.46,1.7l-.192.558A4.578,4.578,0,0,1,47.353,79.528Z" transform="translate(-2.536 -11.364)" fill="#377a4f"/><path d="M8.851,9.879a1,1,0,0,1-.708-.294L-.708.706a1,1,0,0,1,0-1.414,1,1,0,0,1,1.414,0L9.559,8.173a1,1,0,0,1-.708,1.706Z" transform="translate(73.478 12.8)" fill="#377a4f"/><path d="M57.425,60.683a1,1,0,0,1-.723-.309L53.235,56.75a3.776,3.776,0,0,0-2.745-1.193H29.226A2.258,2.258,0,0,1,27,53.274V6.283A2.258,2.258,0,0,1,29.226,4H50.49a5.836,5.836,0,0,1,4.19,1.811L57.425,8.68,60.17,5.811A5.838,5.838,0,0,1,64.361,4H85.216a2.676,2.676,0,0,1,2.635,2.709,1,1,0,1,1-2,0A.676.676,0,0,0,85.216,6H64.361a3.777,3.777,0,0,0-2.745,1.193l-3.467,3.625a1,1,0,0,1-1.445,0L53.235,7.193A3.776,3.776,0,0,0,50.49,6H29.226A.263.263,0,0,0,29,6.283V53.274a.263.263,0,0,0,.226.283H50.49a5.836,5.836,0,0,1,4.19,1.811l2.745,2.869,2.745-2.869a5.838,5.838,0,0,1,4.19-1.811H85.624a.263.263,0,0,0,.226-.283V39.166a1,1,0,0,1,2,0V53.274a2.258,2.258,0,0,1-2.226,2.283H64.361a3.777,3.777,0,0,0-2.745,1.193l-3.467,3.625A1,1,0,0,1,57.425,60.683Z" transform="translate(-15.226 -2.536)" fill="#377a4f"/><path d="M0,56.294a1,1,0,0,1-1-1V0A1,1,0,0,1,0-1,1,1,0,0,1,1,0V55.294A1,1,0,0,1,0,56.294Z" transform="translate(42.254 9.636)" fill="#377a4f"/><path d="M17.171,1H0A1,1,0,0,1-1,0,1,1,0,0,1,0-1H17.171a1,1,0,0,1,1,1A1,1,0,0,1,17.171,1Z" transform="translate(18.783 26.837)" fill="#377a4f"/><path d="M17.171,1H0A1,1,0,0,1-1,0,1,1,0,0,1,0-1H17.171a1,1,0,0,1,1,1A1,1,0,0,1,17.171,1Z" transform="translate(18.783 20.476)" fill="#377a4f"/><path d="M17.171,1H0A1,1,0,0,1-1,0,1,1,0,0,1,0-1H17.171a1,1,0,0,1,1,1A1,1,0,0,1,17.171,1Z" transform="translate(18.783 33.199)" fill="#377a4f"/><path d="M17.171,1H0A1,1,0,0,1-1,0,1,1,0,0,1,0-1H17.171a1,1,0,0,1,1,1A1,1,0,0,1,17.171,1Z" transform="translate(18.783 39.561)" fill="#377a4f"/><path d="M17.6,1H0A1,1,0,0,1-1,0,1,1,0,0,1,0-1H17.6a1,1,0,0,1,1,1A1,1,0,0,1,17.6,1Z" transform="translate(48.229 26.837)" fill="#377a4f"/><path d="M17.6,1H0A1,1,0,0,1-1,0,1,1,0,0,1,0-1H17.6a1,1,0,0,1,1,1A1,1,0,0,1,17.6,1Z" transform="translate(48.229 20.476)" fill="#377a4f"/><path d="M17.6,1H0A1,1,0,0,1-1,0,1,1,0,0,1,0-1H17.6a1,1,0,0,1,1,1A1,1,0,0,1,17.6,1Z" transform="translate(48.229 33.199)" fill="#377a4f"/><path d="M17.6,1H0A1,1,0,0,1-1,0,1,1,0,0,1,0-1H17.6a1,1,0,0,1,1,1A1,1,0,0,1,17.6,1Z" transform="translate(48.229 39.561)" fill="#377a4f"/></g></svg>