<svg xmlns="http://www.w3.org/2000/svg" width="108.264" height="21.323" viewBox="0 0 108.264 21.323">
  <path id="União_24" data-name="União 24" d="M4.2,20h0a11.513,11.513,0,0,1-2.179-.187C-.112,19.375,0,17.732,0,17.732a.041.041,0,0,1,0,.01.1.1,0,0,1,0-.015,1,1,0,0,0,.04.115,1.675,1.675,0,0,0,.868.786c2.481,1.149,9.343.086,16.859-3.331,7.674-3.491,14.188-8.263,13.453-11.319L31.258,4a2.481,2.481,0,0,1,.143,2.7c-.021.044-.045.088-.068.134-1.105,2.031-3.727,4.271-7.153,6.376a9.654,9.654,0,0,1-8.957,6.076,9.441,9.441,0,0,1-2.484-.34c-.265-.072-.523-.153-.779-.246A28.526,28.526,0,0,1,4.2,20ZM.973,17.021a1.015,1.015,0,0,1,.146-.687,18.568,18.568,0,0,1,4.755-4.3,9.594,9.594,0,0,1-.3-2.382c0-.125,0-.25.008-.373a9.637,9.637,0,0,1,17.766-4.8c-.037-.062-.069-.118-.11-.18.6-.142,1.177-.261,1.73-.357a19.028,19.028,0,0,1,3.262-.322c.357,0,.7.015,1.015.046a.957.957,0,0,1,.51.184.66.66,0,0,1,.189.235.888.888,0,0,1,.065.491,1.15,1.15,0,0,0-.358-.1,8.777,8.777,0,0,0-1.079-.062,21.871,21.871,0,0,0-4.854.68l0,0c.028.053.057.107.085.162a9.6,9.6,0,0,1,1.065,4.406c0,.147-.008.293-.013.438a45.907,45.907,0,0,1-7.6,4.333,53.268,53.268,0,0,1-6.165,2.368q-.905.278-1.756.492h0a9.409,9.409,0,0,1-.744-.637l-.035-.035c-.015-.012-.027-.025-.041-.038a9.625,9.625,0,0,1-2.358-3.63,28.053,28.053,0,0,0-2.584,2,15.8,15.8,0,0,0-1.345,1.322,8.913,8.913,0,0,0-.7.884,1.167,1.167,0,0,0-.134.37A.739.739,0,0,1,.973,17.021Zm10.169-2.776h.694a.191.191,0,0,0,.053-.008.238.238,0,0,0,.143-.131h0v-.012l0-.012.585-2.183,3.69,0v0h0l-.581,2.183,0,.023h0a.139.139,0,0,0,.016.089.123.123,0,0,0,.1.047h.7a.225.225,0,0,0,.2-.143l0,0,0,0v0l0-.012,0-.012.154-.577.423-1.6h0v0l2.816,0a.122.122,0,0,0,.1-.049.1.1,0,0,0,.037-.094l-.572-3.632-.667-4.2a.074.074,0,0,0-.077-.069.149.149,0,0,0-.114.069l-4.877,7.051-3.711,0,3.476-5.2.527,3.77L15.066,8.4l-.089-.55L14.336,3.93a.074.074,0,0,0-.077-.068.147.147,0,0,0-.114.064L8.724,11.767a.1.1,0,0,0-.017.1.07.07,0,0,0,.073.049l2.82-.007-.577,2.186,0,.016v0h0s0,.009,0,.013A.117.117,0,0,0,11.142,14.245ZM90.206,9.674c0-2.953,2.374-4.72,5.17-4.774h.134a11.133,11.133,0,0,1,2.431.313l-.081,1.946A5.677,5.677,0,0,0,96.006,6.8,2.734,2.734,0,0,0,93.08,9.674a2.649,2.649,0,0,0,2.877,2.877,4.9,4.9,0,0,0,1.922-.378v0s0,0,.007,0l.086,1.91a7.68,7.68,0,0,1-2.463.374C92.479,14.457,90.206,12.859,90.206,9.674Zm-10.551,0c0-3,1.833-4.775,4.824-4.775,3.044,0,4.837,1.7,4.837,4.775,0,.094,0,.188-.006.279-.109,2.859-1.906,4.5-4.831,4.5C81.432,14.457,79.655,12.749,79.655,9.674Zm2.865,0c0,1.252.4,2.987,1.959,2.987,1.6,0,1.96-1.627,1.972-2.926V9.674c0-1.3-.35-2.987-1.972-2.987-.049,0-.1,0-.144,0C82.887,6.794,82.521,8.465,82.521,9.674ZM72.827,12.5a2.384,2.384,0,0,1,.06-.543c.316-1.366,1.868-1.863,3.761-1.863H77.2V9.759c0-1.056-.422-1.71-1.559-1.712a3.554,3.554,0,0,0-1.989.558l-.086-.9h0v0a5.954,5.954,0,0,1,2.054-.454c.021,0,.04,0,.061,0,1.723,0,2.52.862,2.52,2.586v3a9.461,9.461,0,0,0,.086,1.472h-.988l0-.048L77.246,13.2a2.4,2.4,0,0,1-2.069,1.255c-.027,0-.055,0-.081,0C73.855,14.457,72.827,13.835,72.827,12.5Zm2.451,1.143c1.468,0,1.918-1.106,1.918-2.395v-.415H77a5.326,5.326,0,0,0-2.42.407,1.31,1.31,0,0,0-.713,1.215,1.074,1.074,0,0,0,.518.965A1.707,1.707,0,0,0,75.278,13.641Zm-17.234.816h0c-2.235,0-3.187-1.569-3.187-3.642,0-1.752,1.052-3.518,2.864-3.571l.086,0c1.706,0,2.513,1.215,2.7,2.749a6.072,6.072,0,0,1,.041.711v.417H55.916a2.268,2.268,0,0,0,2.224,2.521,4.388,4.388,0,0,0,1.955-.484l.085.938a6.011,6.011,0,0,1-2.134.362Zm1.469-4.089c0-1.068-.426-2.319-1.7-2.321-1.243,0-1.88,1.336-1.9,2.277,0,.015,0,.029,0,.044Zm-8.27,1.793V8.174h-1.31V7.385h1.31V5.82l1-.346v1.91h1.573v.784h0v0H52.242v4.25c0,.618.167,1.159.891,1.159a1.869,1.869,0,0,0,.78-.183v0a0,0,0,0,1,0,0l.049.849h0v0a3.248,3.248,0,0,1-.889.194c-.08.006-.16.009-.237.009C51.422,14.457,51.243,13.429,51.243,12.161Zm-4.479,2.3a5.679,5.679,0,0,1-1.972-.318l.078-.945h0a3.8,3.8,0,0,0,.428.189,4.038,4.038,0,0,0,1.381.237l.1,0c.677-.032,1.366-.393,1.366-1.147,0-1.683-3.349-1.212-3.349-3.337,0-1.337,1.231-1.891,2.377-1.891a5.251,5.251,0,0,1,1.728.3l-.081.854a4.366,4.366,0,0,0-1.557-.334c-.655,0-1.4.2-1.422,1.018v.04c0,1.021,2.1,1.05,2.976,2.169a1.791,1.791,0,0,1,.377,1.147h0v0a2.179,2.179,0,0,1-2.435,2.017Zm-9.294,0h0a7.853,7.853,0,0,1-.828-.043,4.934,4.934,0,0,1-1.4-.347L35.319,13a3.951,3.951,0,0,0,2.138.539,2.5,2.5,0,0,0,1.3-.314,1.547,1.547,0,0,0,.727-1.407c0-.834-.8-1.289-1.657-1.752l-.955-.512a2.573,2.573,0,0,1-1.7-2.224,2.46,2.46,0,0,1,.028-.377c.218-1.418,1.67-2.053,3.053-2.053h0a5.7,5.7,0,0,1,1.874.283l-.077.988-.008,0v0a2.485,2.485,0,0,0-.329-.14,4.53,4.53,0,0,0-1.217-.218h-.024c-.069,0-.138,0-.205,0-.971,0-1.973.361-1.973,1.475,0,.724.654,1.142,1.387,1.528l.962.512c1.029.565,1.976,1.188,1.976,2.483a2.432,2.432,0,0,1-1.413,2.268,3.91,3.91,0,0,1-1.745.383ZM99.2,14.3V5.032h4.727c1.516,0,3.13.5,3.13,2.3,0,.039,0,.076,0,.114a2.066,2.066,0,0,1-.591,1.441,2.543,2.543,0,0,1-1.272.643A2.324,2.324,0,0,1,107.152,11l0,0c0,.01.006.021.01.032a.118.118,0,0,1,0,.018.164.164,0,0,1,.007.023.269.269,0,0,0,.008.026l0,.015c0,.012.007.023.01.037v0a2.252,2.252,0,0,1,.057.374v.009c0,.055,0,.109,0,.165s0,.14,0,.206c-.113,2.067-1.958,2.392-3.733,2.392Zm3.572-1.554h.037c.784-.007,1.7-.267,1.7-1.222a1.064,1.064,0,0,0-.378-.892,2.272,2.272,0,0,0-1.382-.333h-.918v2.446Zm-.016-3.88c.768,0,1.6-.253,1.6-1.171a.964.964,0,0,0-.486-.892,2.032,2.032,0,0,0-.981-.214h-1.056V8.869ZM70.336,14.3v0h0V9.771c0-.927-.333-1.665-1.375-1.666-1.263,0-1.718,1.252-1.718,2.459V14.3H66.224v0h0V9.771c0-.927-.32-1.665-1.363-1.666a1.458,1.458,0,0,0-1.092.447l-.014.013s0,0,0,0a2.968,2.968,0,0,0-.626,2V14.3H62.106v0h0V9.011c0-.54-.017-1.089-.069-1.626h.931l.045,1.191c.015-.029.029-.056.045-.084a2.2,2.2,0,0,1,2.023-1.25h0a1.965,1.965,0,0,1,2.012,1.447,2.3,2.3,0,0,1,2.1-1.447,2.1,2.1,0,0,1,2.153,2.349V14.3Zm-28.067,0V7.385h1.021V14.3ZM14.986,10.974l3.475-5.2.7,5.2-2.6,0ZM42.269,5.841V4.629h1.021V5.841Z" transform="translate(0.505 0.5)" fill="#0d124a" stroke="rgba(0,0,0,0)" stroke-miterlimit="10" stroke-width="1"/>
</svg>