<svg xmlns="http://www.w3.org/2000/svg" width="46.359" height="30.351" viewBox="0 0 46.359 30.351"><g transform="translate(0)"><path d="M705.844,471.092c-2.443,0-4.27-1.289-4.27-3.857,0-2.421,1.973-3.856,4.27-3.856a8.881,8.881,0,0,1,1.962.258l-.067,1.568a4.548,4.548,0,0,0-1.49-.291,2.213,2.213,0,0,0-2.366,2.321,2.14,2.14,0,0,0,2.321,2.321,4.112,4.112,0,0,0,1.557-.3l.068,1.535a6.287,6.287,0,0,1-1.985.3" transform="translate(-701.574 -440.74)" fill="#f7f3f3"/><path d="M717.146,471.034l-2.163-5.8v5.8h-1.928v-7.476h3.261l2.175,5.806v-5.806h1.917v7.476Z" transform="translate(-705.813 -440.806)" fill="#f7f3f3"/><g transform="translate(8.578)"><path d="M730.69,471.092c-2.443,0-4.271-1.289-4.271-3.857,0-2.421,1.972-3.856,4.271-3.856a8.874,8.874,0,0,1,1.961.258l-.067,1.568a4.548,4.548,0,0,0-1.491-.291,2.213,2.213,0,0,0-2.365,2.321,2.139,2.139,0,0,0,2.321,2.321,4.111,4.111,0,0,0,1.557-.3l.067,1.535a6.282,6.282,0,0,1-1.984.3" transform="translate(-719.327 -440.74)" fill="#f7f3f3"/><path d="M741,464.825c-1.267,0-1.58,1.4-1.58,2.41s.325,2.411,1.58,2.411c1.313,0,1.593-1.358,1.593-2.411s-.281-2.41-1.593-2.41m0,6.267a3.522,3.522,0,0,1-3.89-3.857,3.568,3.568,0,0,1,3.89-3.856,3.857,3.857,0,1,1,0,7.713" transform="translate(-723.276 -440.74)" fill="#f7f3f3"/><path d="M754.492,464.825c-1.268,0-1.581,1.4-1.581,2.41s.325,2.411,1.581,2.411c1.311,0,1.592-1.358,1.592-2.411s-.281-2.41-1.592-2.41m0,6.267a3.522,3.522,0,0,1-3.89-3.857,3.568,3.568,0,0,1,3.89-3.856,3.857,3.857,0,1,1,0,7.713" transform="translate(-728.257 -440.74)" fill="#f7f3f3"/><path d="M767.575,464.958h-.763v2.2h.594c.807,0,1.615-.125,1.615-1.122,0-.852-.729-1.076-1.446-1.076m1.009,3.587h-1.76v2.488H764.66v-7.477h3.945a2.5,2.5,0,1,1-.022,4.988" transform="translate(-733.448 -440.806)" fill="#f7f3f3"/><path d="M721.1,445.048a17.194,17.194,0,0,0-4.382,3.963.927.927,0,0,0-.134.633.683.683,0,0,0,.389.454.97.97,0,0,1,.122-.341,16.96,16.96,0,0,1,4.259-3.876c-.1-.271-.182-.549-.254-.833" transform="translate(-715.691 -433.971)" fill="#f7f3f3"/><path d="M755.286,433.186a.751.751,0,0,0-.644-.389,17.867,17.867,0,0,0-5.53.587q.235.353.438.729a16.56,16.56,0,0,1,5.469-.569,1.055,1.055,0,0,1,.329.091.873.873,0,0,0-.062-.449" transform="translate(-727.706 -429.432)" fill="#f7f3f3"/><path d="M736.939,448.086a46.315,46.315,0,0,1-6.312,2.348,8.884,8.884,0,0,0,12.959-5.947,51.241,51.241,0,0,1-6.647,3.6" transform="translate(-720.88 -433.764)" fill="#f7f3f3"/><path d="M743.934,433.293c.679,2.814-5.322,7.207-12.393,10.423-8.108,3.687-15.393,4.4-16.326,2.344-.015-.033-.027-.067-.04-.1,0,0-.1,1.512,1.857,1.914,2.982.6,8.61-.3,14.928-3.178,5.731-2.608,10.518-5.919,12.068-8.768a2.282,2.282,0,0,0-.1-2.634" transform="translate(-715.174 -429.63)" fill="#f7f3f3"/><path d="M736.837,438.4a.125.125,0,0,1-.09.045l-2.6-.005-.536,2.012,0,.008,0,.012h0a.207.207,0,0,1-.18.129h-.641a.105.105,0,0,1-.11-.128h0l0-.018.536-2.012-3.4,0-.536,2.011s0,.006,0,.009l0,.012s0,0,0,0a.206.206,0,0,1-.179.129l-.643,0a.108.108,0,0,1-.11-.129h0l0-.019.532-2.008-2.6,0a.066.066,0,0,1-.067-.042.091.091,0,0,1,.013-.09l5-7.222a.136.136,0,0,1,.106-.061.07.07,0,0,1,.073.061l.672,4.119-.734,1.06-.482-3.475-3.2,4.792,3.415,0,4.494-6.5a.134.134,0,0,1,.1-.06.068.068,0,0,1,.073.06l1.142,7.218a.1.1,0,0,1-.033.087m-4.64-10.914a8.88,8.88,0,0,0-5.419,15.915,44.933,44.933,0,0,0,7.3-2.635,42.5,42.5,0,0,0,6.994-3.989c.006-.136.011-.273.011-.409a8.881,8.881,0,0,0-8.883-8.881" transform="translate(-718.181 -427.486)" fill="#f7f3f3"/></g><path d="M737.055,440.7l1.454,0,2.394,0-.646-4.79Z" transform="translate(-714.676 -430.595)" fill="#f7f3f3"/></g></svg>