<svg xmlns="http://www.w3.org/2000/svg" width="140.057" height="32.963" viewBox="0 0 140.057 32.963">
  <g id="COOP_-_Logo" data-name="COOP - Logo" transform="translate(0 0)">
    <g id="Grupo_523" data-name="Grupo 523">
      <path id="Caminho_305" data-name="Caminho 305" d="M190.285-124.587a1.488,1.488,0,0,0,.387.167,11.54,11.54,0,0,1,8.712,5.507,11.372,11.372,0,0,1,1.786,7.073,11.646,11.646,0,0,1-2.7,6.774,11.528,11.528,0,0,1-6.666,4.052,11.686,11.686,0,0,1-9.973-2.351c-.237-.185-.475-.368-.636-.492-.991.643-1.886,1.308-2.856,1.836a11.12,11.12,0,0,1-6.755,1.217,11.731,11.731,0,0,1-10.289-9.677,11.569,11.569,0,0,1,2.556-9.775,12.047,12.047,0,0,1,7.207-4.124c.245-.048.507-.013.756-.048a1.687,1.687,0,0,0,.393-.16h1.519a1.446,1.446,0,0,0,.392.16,11.354,11.354,0,0,1,6.458,2.671c.186.155.4.279.562.394a1.273,1.273,0,0,0,.145-.078,11.558,11.558,0,0,1,6.789-3c.082-.006.158-.1.236-.151Zm-11.491,17.651c-.072-.189-.12-.358-.2-.511a12.137,12.137,0,0,1-.988-2.931,1.868,1.868,0,0,1,1.043-2.138,1.887,1.887,0,0,1,2.647,1.434,8.435,8.435,0,0,0,.824,2.34,7.977,7.977,0,0,0,7.347,4.255,7.768,7.768,0,0,0,6.49-3.468,7.658,7.658,0,0,0,.523-8.509,7.916,7.916,0,0,0-7.146-4.343,7.951,7.951,0,0,0-4.384,1.247,4.477,4.477,0,0,0-1.481,1.28c.08.173.165.329.226.494a18.755,18.755,0,0,1,.731,2.064,1.8,1.8,0,0,1-2.031,2.343,1.677,1.677,0,0,1-1.509-1.293,8.223,8.223,0,0,0-2.366-3.9,7.877,7.877,0,0,0-7.415-2,8.054,8.054,0,0,0-4.12,2.415,8.059,8.059,0,0,0-2.215,5.561,7.508,7.508,0,0,0,.89,3.64,8.154,8.154,0,0,0,10.11,3.988A7.074,7.074,0,0,0,178.795-106.936Z" transform="translate(-141.828 124.587)" fill="#f7f3f3"/>
      <path id="Caminho_306" data-name="Caminho 306" d="M267.559-91.624a3.874,3.874,0,0,0-.342-.269,1.675,1.675,0,0,1-.847-1.509c0-4.326.01-8.652-.009-12.978a1.781,1.781,0,0,1,1.546-1.766,1.79,1.79,0,0,1,2.06,1.362,2.1,2.1,0,0,1,.117.664c-.043.467.214.683.577.87a6.672,6.672,0,0,0,5.988.143,8,8,0,0,0,4.858-5.9,7.793,7.793,0,0,0-1.661-6.738,7.98,7.98,0,0,0-5.634-3.046,7.971,7.971,0,0,0-5.249,1.361,5.253,5.253,0,0,1-1.193.626,1.777,1.777,0,0,1-2.163-1.46,1.991,1.991,0,0,1,.915-2.01,11.534,11.534,0,0,1,5.658-2.153,1.427,1.427,0,0,0,.392-.163h1.823a1.4,1.4,0,0,0,.391.16,11.111,11.111,0,0,1,5.844,2.271,11.372,11.372,0,0,1,4.421,6.761,11.322,11.322,0,0,1,.365,2.683,11.851,11.851,0,0,1-3.162,8.122,11.741,11.741,0,0,1-6.417,3.62,9.529,9.529,0,0,1-5.075-.234c-.165-.057-.337-.092-.533-.145-.214.239-.129.528-.129.786-.008,2.175,0,4.349-.01,6.524a8.3,8.3,0,0,1-.112.97,1.566,1.566,0,0,1-.85,1.183,4.1,4.1,0,0,0-.353.261Z" transform="translate(-206.796 124.587)" fill="#f7f3f3"/>
      <path id="Caminho_307" data-name="Caminho 307" d="M123.069-124.587c.1.054.2.149.312.158a11.428,11.428,0,0,1,5.852,2.257,1.9,1.9,0,0,1,.751,2.067,1.772,1.772,0,0,1-1.555,1.363,2.02,2.02,0,0,1-1.543-.5,8.392,8.392,0,0,0-2.863-1.329,8.194,8.194,0,0,0-8.881,3.691,8.149,8.149,0,0,0-1.2,4.841,7.892,7.892,0,0,0,1.836,4.561,7.922,7.922,0,0,0,4.474,2.8,8.007,8.007,0,0,0,6.682-1.369,2.012,2.012,0,0,1,1.922-.348,1.854,1.854,0,0,1,.551,3.145,18.216,18.216,0,0,1-2.249,1.386,11.48,11.48,0,0,1-6.035,1.08,11.408,11.408,0,0,1-4.808-1.463,11.829,11.829,0,0,1-4.776-4.934,10.575,10.575,0,0,1-1.22-4.1,1.359,1.359,0,0,0-.163-.391v-1.975a1.254,1.254,0,0,0,.166-.385,9.311,9.311,0,0,1,.7-2.921,11.643,11.643,0,0,1,3.986-5.218,11.17,11.17,0,0,1,5.838-2.253,1.4,1.4,0,0,0,.395-.16Z" transform="translate(-110.157 124.587)" fill="#f7f3f3"/>
      <path id="Caminho_308" data-name="Caminho 308" d="M474.488-95.479c-.342-.046-.763.231-1.017-.281-.146.087-.286.188-.44.261a1.377,1.377,0,0,1-1.866-.617A2.449,2.449,0,0,1,471.1-98.3a1.416,1.416,0,0,1,1.823-.783,4.262,4.262,0,0,1,.481.227v-1.573l1.082-.062Zm-1.038-1.656c-.015-.3-.01-.422-.029-.545a.724.724,0,0,0-.668-.693.7.7,0,0,0-.728.527,1.523,1.523,0,0,0,.037,1.24.665.665,0,0,0,1.2.086A2.122,2.122,0,0,0,473.45-97.135Z" transform="translate(-334.431 109.606)" fill="#f7f3f3"/>
      <path id="Caminho_309" data-name="Caminho 309" d="M408.3-71.332h-.95l-.61-2.188-.592,2.166h-.968c-.261-.8-.523-1.583-.775-2.373-.121-.378-.223-.763-.352-1.209h.943l.666,2.175.61-2.184h.952l.583,2.192.67-2.186h.9a1.071,1.071,0,0,1,0,.264C409.023-73.571,408.666-72.469,408.3-71.332Z" transform="translate(-292.883 93.722)" fill="#f7f3f3"/>
      <path id="Caminho_310" data-name="Caminho 310" d="M444.848-77v-1.606h.99c.095,1.636.045,3.286.027,4.975-.421.043-.8.233-1.036-.248a.32.32,0,0,0-.117.021,1.454,1.454,0,0,1-2.38-1.023,3.73,3.73,0,0,1,.087-1.417,1.392,1.392,0,0,1,2-.894C444.528-77.145,444.639-77.092,444.848-77ZM443.3-75.448a3.155,3.155,0,0,0,.139.691.663.663,0,0,0,1.164.147,1.536,1.536,0,0,0,.031-1.639.657.657,0,0,0-1.164.1A3.339,3.339,0,0,0,443.3-75.448Z" transform="translate(-316.663 95.999)" fill="#f7f3f3"/>
      <path id="Caminho_311" data-name="Caminho 311" d="M377.2-115.3v1.623h-.952v-4.974c.389.034.787-.221,1.033.249a6.109,6.109,0,0,1,.69-.283,1.313,1.313,0,0,1,1.5.591,2.5,2.5,0,0,1,.133,2.329,1.424,1.424,0,0,1-1.84.747C377.61-115.082,377.458-115.172,377.2-115.3Zm1.565-1.408a5.229,5.229,0,0,0-.037-.539.709.709,0,0,0-.611-.665.722.722,0,0,0-.761.491,1.535,1.535,0,0,0-.008,1.241.659.659,0,0,0,.635.44.617.617,0,0,0,.658-.4A3.046,3.046,0,0,0,378.769-116.708Z" transform="translate(-275.6 120.948)" fill="#f7f3f3"/>
      <path id="Caminho_312" data-name="Caminho 312" d="M438.788-100.4h.985c.011.274.025.54.031.807.005.251,0,.5,0,.819.207-.1.351-.18.506-.234a1.44,1.44,0,0,1,1.917.855,2.459,2.459,0,0,1,0,1.846,1.4,1.4,0,0,1-2.078.811,2.409,2.409,0,0,1-.251-.165c-.281.393-.656.258-1.1.218C438.775-97.08,438.79-98.706,438.788-100.4Zm2.57,3.25a4.827,4.827,0,0,0-.093-.627.655.655,0,0,0-.561-.533.7.7,0,0,0-.741.395,1.5,1.5,0,0,0,.082,1.5.682.682,0,0,0,1.172-.112A2.829,2.829,0,0,0,441.358-97.148Z" transform="translate(-314.479 109.548)" fill="#f7f3f3"/>
      <path id="Caminho_313" data-name="Caminho 313" d="M350.687-73.946c-.232.438-.591.367-1.032.253-.044-1.662-.036-3.309-.01-4.988h.976v1.594a5.4,5.4,0,0,1,.912-.268,1.406,1.406,0,0,1,1.558,1.029,2.536,2.536,0,0,1-.017,1.7,1.413,1.413,0,0,1-2.176.8Zm1.5-1.445a4.4,4.4,0,0,0-.066-.593.778.778,0,0,0-.686-.609.749.749,0,0,0-.725.561,1.564,1.564,0,0,0,.125,1.313.651.651,0,0,0,1.2-.084A2.936,2.936,0,0,0,352.189-75.391Z" transform="translate(-259.044 96.045)" fill="#f7f3f3"/>
      <path id="Caminho_314" data-name="Caminho 314" d="M338.294-120.893l-.995.23c-.232-.435-.509-.807-1.081-.8a1.02,1.02,0,0,0-1.116.912,5.7,5.7,0,0,0-.021,1.359A1.071,1.071,0,0,0,336-118.13a1.031,1.031,0,0,0,1.16-.651c.059-.1.1-.22.171-.379l.922.307a1.843,1.843,0,0,1-1.767,1.648,2.168,2.168,0,0,1-2.19-1.047,3.075,3.075,0,0,1,.064-3.178,2.114,2.114,0,0,1,2.237-.948A1.848,1.848,0,0,1,338.294-120.893Z" transform="translate(-249.258 123.229)" fill="#f7f3f3"/>
      <path id="Caminho_315" data-name="Caminho 315" d="M380.476-91.925h-.834a25.877,25.877,0,0,1-.085-4.876c.714-.2.714-.2.942.223a3.948,3.948,0,0,1,.813-.354,1.365,1.365,0,0,1,1.625,1.027,2.7,2.7,0,0,1,.033,1.641,1.444,1.444,0,0,1-2.094.946c-.113-.05-.216-.124-.4-.231v1.625Zm1.564-3.169a1.649,1.649,0,0,0-.125-.593.979.979,0,0,0-.548-.441.876.876,0,0,0-.638.288,1.362,1.362,0,0,0-.036,1.56,1.015,1.015,0,0,0,.628.331.6.6,0,0,0,.6-.481A5.719,5.719,0,0,0,382.04-95.094Z" transform="translate(-277.61 107.412)" fill="#f7f3f3"/>
      <path id="Caminho_316" data-name="Caminho 316" d="M337.075-71.534c-.369.079-.736.135-.982-.18a6.561,6.561,0,0,1-1.127.268,1.065,1.065,0,0,1-1.17-.858,1.03,1.03,0,0,1,.812-1.255c.429-.136.872-.225,1.274-.326.14-.287.049-.457-.168-.535a.72.72,0,0,0-.971.418l-.9-.226a6.824,6.824,0,0,1,.365-.622,2.219,2.219,0,0,1,2.469-.07,1.568,1.568,0,0,1,.3.741,9.577,9.577,0,0,1,.016,1.06C337.013-72.62,337.045-72.121,337.075-71.534Zm-1.16-1.655c-.3.07-.546.117-.785.186a.366.366,0,0,0-.29.458.426.426,0,0,0,.5.356C335.789-72.209,335.955-72.47,335.915-73.189Z" transform="translate(-249.188 93.919)" fill="#f7f3f3"/>
      <path id="Caminho_317" data-name="Caminho 317" d="M368.2-116.927a1.853,1.853,0,0,1-1.856,1.973,1.784,1.784,0,0,1-1.925-1.885,1.837,1.837,0,0,1,1.844-1.973A1.86,1.86,0,0,1,368.2-116.927Zm-1.037.109a3.572,3.572,0,0,0-.065-.528.841.841,0,0,0-.78-.607.767.767,0,0,0-.75.53,1.3,1.3,0,0,0,.044,1.165.771.771,0,0,0,1.393.012A2.246,2.246,0,0,0,367.158-116.818Z" transform="translate(-268.238 120.998)" fill="#f7f3f3"/>
      <path id="Caminho_318" data-name="Caminho 318" d="M348.911-118.791a1.893,1.893,0,0,1,1.954,1.883,1.915,1.915,0,0,1-1.874,1.971,1.8,1.8,0,0,1-1.916-1.889A1.822,1.822,0,0,1,348.911-118.791Zm-.783,1.9c.008.135,0,.237.02.336a.8.8,0,0,0,.653.732.776.776,0,0,0,.9-.517,1.258,1.258,0,0,0-.005-1.094.775.775,0,0,0-.767-.505.837.837,0,0,0-.756.633A2.461,2.461,0,0,0,348.128-116.889Z" transform="translate(-257.459 120.984)" fill="#f7f3f3"/>
      <path id="Caminho_319" data-name="Caminho 319" d="M420.51-75.212a1.79,1.79,0,0,1,1.9,1.9,1.861,1.861,0,0,1-1.908,1.911,1.8,1.8,0,0,1-1.878-1.915A1.773,1.773,0,0,1,420.51-75.212Zm.871,2.041a4.774,4.774,0,0,0-.082-.584.883.883,0,0,0-.752-.653.872.872,0,0,0-.822.658,1.376,1.376,0,0,0,.1,1.1.793.793,0,0,0,1.231.17A2.532,2.532,0,0,0,421.381-73.171Z" transform="translate(-301.941 93.892)" fill="#f7f3f3"/>
      <path id="Caminho_320" data-name="Caminho 320" d="M438.025-116.217l.811.183a1.247,1.247,0,0,1-.874.989,1.8,1.8,0,0,1-2.459-1.932,1.736,1.736,0,0,1,1.458-1.762,1.554,1.554,0,0,1,1.833,1.081,9.33,9.33,0,0,1,.2,1.1h-2.437C436.879-115.591,437.3-115.51,438.025-116.217Zm-.158-1c-.082-.577-.189-.708-.573-.727-.405-.021-.529.1-.691.727Z" transform="translate(-312.433 120.97)" fill="#f7f3f3"/>
      <path id="Caminho_321" data-name="Caminho 321" d="M390.324-116.562h-2.4a.631.631,0,0,0,.451.752.647.647,0,0,0,.847-.4l.872.127a1.412,1.412,0,0,1-1.643,1.151,1.588,1.588,0,0,1-1.55-1.32,2.371,2.371,0,0,1,.09-1.489,1.6,1.6,0,0,1,1.524-1.045,1.514,1.514,0,0,1,1.567,1.079A10.649,10.649,0,0,1,390.324-116.562Zm-2.44-.626a6.545,6.545,0,0,0,1.363-.063c-.085-.43-.236-.713-.679-.705C388.2-117.951,388.1-117.849,387.884-117.188Z" transform="translate(-282.171 120.983)" fill="#f7f3f3"/>
      <path id="Caminho_322" data-name="Caminho 322" d="M407.407-115.1c-.334.011-.713.2-.978-.235a1.757,1.757,0,0,1-1.6.283,1.04,1.04,0,0,1-.7-.905.96.96,0,0,1,.593-1.045c.421-.161.879-.224,1.313-.357.121-.037.213-.17.319-.259-.113-.113-.214-.3-.342-.322-.211-.036-.53-.047-.645.078-.337.365-.679.211-1.071.156a.97.97,0,0,1,.731-.966,2.542,2.542,0,0,1,1.64,0,.849.849,0,0,1,.661.828c.005.228,0,.455.011.683C407.358-116.489,407.382-115.815,407.407-115.1Zm-1.127-1.618a7.485,7.485,0,0,0-.8.172.4.4,0,0,0-.295.525.474.474,0,0,0,.6.311C406.2-115.817,406.365-116.139,406.28-116.718Z" transform="translate(-292.925 120.995)" fill="#f7f3f3"/>
      <path id="Caminho_323" data-name="Caminho 323" d="M416.133-94.774h-2.42a.721.721,0,0,0,.491.806c.424.178.625-.186.878-.441l.835.129a1.073,1.073,0,0,1-.8,1,1.772,1.772,0,0,1-2.5-1.851,2.794,2.794,0,0,1,.277-1.008,1.48,1.48,0,0,1,1.567-.813,1.418,1.418,0,0,1,1.39.969A10.338,10.338,0,0,1,416.133-94.774Zm-1.115-.679c-.174-.579-.32-.736-.665-.72-.424.02-.606.284-.661.72Z" transform="translate(-298.21 107.409)" fill="#f7f3f3"/>
      <path id="Caminho_324" data-name="Caminho 324" d="M449.94-96.769h1c.01.492.022.962.029,1.431,0,.3-.01.607.01.909.025.379.236.61.529.621a.692.692,0,0,0,.69-.578,6.631,6.631,0,0,0,.047-.906c.007-.473,0-.946,0-1.461h.944a7.628,7.628,0,0,1,.071,1.77c.017.578,0,1.156,0,1.786-.383.018-.753.255-.988-.237a6.01,6.01,0,0,1-.674.328,1.171,1.171,0,0,1-1.646-1.022C449.894-94.978,449.94-95.835,449.94-96.769Z" transform="translate(-321.404 107.291)" fill="#f7f3f3"/>
      <path id="Caminho_325" data-name="Caminho 325" d="M364.785-94.745h-2.421c.3.976.7,1.065,1.387.355.133.013.281.024.428.043.122.016.243.041.4.067a1.011,1.011,0,0,1-.709.974,1.728,1.728,0,0,1-2.524-1.3,2.531,2.531,0,0,1,.163-1.4,1.5,1.5,0,0,1,1.648-.932,1.469,1.469,0,0,1,1.416,1.052A10.752,10.752,0,0,1,364.785-94.745Zm-2.413-.718h1.3c-.012-.436-.2-.66-.578-.7S362.571-96.038,362.372-95.463Z" transform="translate(-266.308 107.403)" fill="#f7f3f3"/>
      <path id="Caminho_326" data-name="Caminho 326" d="M337.045-94.769h-2.176a.569.569,0,0,0,.326.757c.462.247.687-.12.976-.389l.872.116a2.757,2.757,0,0,1-.212.5,1.622,1.622,0,0,1-1.679.615,1.461,1.461,0,0,1-1.291-1.019,2.527,2.527,0,0,1,.076-1.914,1.488,1.488,0,0,1,1.47-.862,1.518,1.518,0,0,1,1.475.863A1.815,1.815,0,0,1,337.045-94.769Zm-1.005-.682c-.1-.567-.25-.733-.611-.725s-.507.186-.585.725Z" transform="translate(-249.149 107.414)" fill="#f7f3f3"/>
      <path id="Caminho_327" data-name="Caminho 327" d="M363.736-73.05h-2.253a.658.658,0,0,0,.391.794.554.554,0,0,0,.738-.185c.325-.412.683-.08,1.153-.155a4,4,0,0,1-.318.626,1.7,1.7,0,0,1-1.722.535,1.362,1.362,0,0,1-1.22-1.091,3.8,3.8,0,0,1-.055-1.412,1.566,1.566,0,0,1,1.859-1.273,1.585,1.585,0,0,1,1.424,1.52C363.752-73.521,363.736-73.345,363.736-73.05Zm-.94-.677c-.131-.458-.323-.744-.752-.706-.372.033-.576.269-.586.706Z" transform="translate(-265.747 93.895)" fill="#f7f3f3"/>
      <path id="Caminho_328" data-name="Caminho 328" d="M386.223-73.053h-2.254a.65.65,0,0,0,.382.8.562.562,0,0,0,.74-.179c.323-.387.679-.155,1.111-.074a3.1,3.1,0,0,1-.274.538,1.688,1.688,0,0,1-1.72.536,1.363,1.363,0,0,1-1.221-1.087,3.819,3.819,0,0,1-.076-1.34,1.583,1.583,0,0,1,1.875-1.349,1.6,1.6,0,0,1,1.434,1.59C386.233-73.475,386.223-73.324,386.223-73.053Zm-2.294-.682h1.326c-.085-.454-.291-.722-.715-.7C384.163-74.412,383.966-74.17,383.929-73.734Z" transform="translate(-279.721 93.895)" fill="#f7f3f3"/>
      <path id="Caminho_329" data-name="Caminho 329" d="M402.6-94.255l.818-.147c.254.215.431.6.886.561a.652.652,0,0,0,.648-.387,1.344,1.344,0,0,0-.325-.224c-.407-.132-.835-.209-1.233-.362a.965.965,0,0,1-.7-1.047.921.921,0,0,1,.811-.956,4.684,4.684,0,0,1,1.5-.005.913.913,0,0,1,.775.863c-.374.134-.689.282-1.055-.033-.315-.272-.69-.226-1.149,0a1.942,1.942,0,0,0,.424.322c.428.149.883.23,1.3.4a1.056,1.056,0,0,1,.366,1.693,2,2,0,0,1-3.077-.545C402.574-94.14,402.587-94.169,402.6-94.255Z" transform="translate(-291.969 107.36)" fill="#f7f3f3"/>
      <path id="Caminho_330" data-name="Caminho 330" d="M425.443-94.4l-.812-.253c-.287-.089-.583-.158-.861-.27a.94.94,0,0,1-.635-1.005.962.962,0,0,1,.734-.94,2.789,2.789,0,0,1,1.637-.013,1,1,0,0,1,.737.806c-.383.188-.7.333-1.061.011-.326-.292-.7-.176-1.2-.051.207.177.307.32.441.367.38.131.78.2,1.16.332.582.2.783.46.794.966a1.079,1.079,0,0,1-.739,1.114,2.358,2.358,0,0,1-1.909-.05,1.118,1.118,0,0,1-.709-.931l.858-.168c.249.251.434.621.892.57A.686.686,0,0,0,425.443-94.4Z" transform="translate(-304.677 107.433)" fill="#f7f3f3"/>
      <path id="Caminho_331" data-name="Caminho 331" d="M348.085-93.258H347c0-.4,0-.776,0-1.149s.012-.76-.008-1.139c-.016-.294-.121-.549-.469-.593a.647.647,0,0,0-.719.432,3.647,3.647,0,0,0-.136.894c-.021.5-.006,1-.006,1.544h-.914v-3.581c.388-.011.784-.2.919.244a6.441,6.441,0,0,1,1.21-.3.928.928,0,0,1,1.089.912C348.056-95.117,348.048-94.232,348.085-93.258Z" transform="translate(-256.013 107.377)" fill="#f7f3f3"/>
      <path id="Caminho_332" data-name="Caminho 332" d="M426.638-114.881l-1.442-3.571h1.052l.851,2.226.872-2.245h1c-.441,1.246-.932,2.414-1.41,3.59Z" transform="translate(-306.03 120.784)" fill="#f7f3f3"/>
      <path id="Caminho_333" data-name="Caminho 333" d="M356.217-100.269v1.186l.6.194.033.673-.625.188v1.852l.582.121.138.626a1.468,1.468,0,0,1-.279.149c-.983.263-1.461-.091-1.476-1.089-.006-.379,0-.759,0-1.139,0-.268.041-.513-.3-.687-.28-.142-.195-.531.1-.781.07-.059.187-.135.182-.2C355.114-99.881,355.73-99.905,356.217-100.269Z" transform="translate(-262.21 109.467)" fill="#f7f3f3"/>
      <path id="Caminho_334" data-name="Caminho 334" d="M371.537-78.408v1.159l.6.2v.686l-.562.147v1.875l.562.1.152.6c-.1.071-.149.14-.215.154a2.839,2.839,0,0,1-.664.095c-.544-.021-.792-.23-.847-.774-.051-.5-.026-1.008-.036-1.512-.006-.268.044-.52-.314-.676-.227-.1-.221-.592.008-.715a.61.61,0,0,0,.321-.534C370.638-78.124,371.145-78.135,371.537-78.408Z" transform="translate(-271.742 95.876)" fill="#f7f3f3"/>
      <path id="Caminho_335" data-name="Caminho 335" d="M414.679-121.374l.941-.531c.026.436.046.78.069,1.171l.563.158v.632l-.55.164v1.964l.562.094.087.667a4.5,4.5,0,0,1-.609.169.881.881,0,0,1-1.107-.918c-.028-.5,0-1.009-.008-1.513,0-.246.045-.49-.314-.589-.179-.049-.211-.62-.066-.645C414.75-120.637,414.577-121.038,414.679-121.374Z" transform="translate(-299.166 122.919)" fill="#f7f3f3"/>
      <path id="Caminho_336" data-name="Caminho 336" d="M377.711-78.41l.053,1.182.614.171v.689l-.64.15c0,.446,0,.871,0,1.3,0,.172.02.345.033.554l.632.14.064.6a1.057,1.057,0,0,1-.964.222.721.721,0,0,1-.722-.8c-.02-.529-.005-1.058-.008-1.588,0-.222.019-.412-.28-.532-.252-.1-.241-.564-.046-.772a.961.961,0,0,0,.376-.781Z" transform="translate(-275.632 95.877)" fill="#f7f3f3"/>
      <path id="Caminho_337" data-name="Caminho 337" d="M438.549-73.631h-.938c-.061-1.682-.021-3.33-.031-5.021h.9A29.156,29.156,0,0,1,438.549-73.631Z" transform="translate(-313.727 96.027)" fill="#f7f3f3"/>
      <path id="Caminho_338" data-name="Caminho 338" d="M467.3-95.456h-.847a32.928,32.928,0,0,1-.034-4.956c.133-.012.277-.033.422-.037.124,0,.25.01.365.016A21.505,21.505,0,0,1,467.3-95.456Z" transform="translate(-331.61 109.58)" fill="#f7f3f3"/>
      <path id="Caminho_339" data-name="Caminho 339" d="M430.479-71.542v-3.55a.953.953,0,0,1,1.035.14.994.994,0,0,1,1.313-.066l-.252.762a3.56,3.56,0,0,0-.37-.043c-.427,0-.534.057-.64.479a4.385,4.385,0,0,0-.109.9c-.017.452,0,.9,0,1.381Z" transform="translate(-309.315 93.903)" fill="#f7f3f3"/>
      <path id="Caminho_340" data-name="Caminho 340" d="M395.791-74.2c-.809-.12-.952-.024-1.017.718-.035.4-.018.808-.03,1.212-.007.246-.022.492-.035.784h-.948V-75.1c.358,0,.721-.233.924.221a3.291,3.291,0,0,1,.7-.3,2.484,2.484,0,0,1,.709.1c-.059.215-.09.355-.137.49C395.922-74.469,395.862-74.357,395.791-74.2Z" transform="translate(-286.486 93.87)" fill="#f7f3f3"/>
      <path id="Caminho_341" data-name="Caminho 341" d="M373.152-93.269h-1.023c-.009-1.2-.006-2.369,0-3.554.431-.087.771-.186,1.02.169.61-.345.629-.347,1.341-.114l-.178.68c-.091.043-.157.1-.224.1-.736.011-.888.124-.929.844C373.125-94.543,373.152-93.94,373.152-93.269Z" transform="translate(-273.032 107.392)" fill="#f7f3f3"/>
      <path id="Caminho_342" data-name="Caminho 342" d="M399.871-117.8a1.018,1.018,0,0,1-.189.044c-.716-.013-.828.081-.874.8-.028.428-.026.858-.042,1.287-.007.2-.024.395-.039.627h-.942v-3.5c.6-.177.6-.177.986.137a1.062,1.062,0,0,1,1.358-.118Z" transform="translate(-288.988 120.94)" fill="#f7f3f3"/>
      <path id="Caminho_343" data-name="Caminho 343" d="M392.938-95.993c-.133-.009-.233-.023-.332-.02-.477.014-.586.078-.648.54-.07.52-.085,1.049-.118,1.574-.011.174,0,.35,0,.517-.3.238-.59.093-.918.127v-3.6c.365-.041.709-.168.959.21.573-.355.573-.355,1.25-.168A1.357,1.357,0,0,1,392.938-95.993Z" transform="translate(-284.719 107.397)" fill="#f7f3f3"/>
      <path id="Caminho_344" data-name="Caminho 344" d="M461.314-96.754h.983c.008,1.2,0,2.366,0,3.579h-.985Z" transform="translate(-328.486 107.282)" fill="#f7f3f3"/>
      <path id="Caminho_345" data-name="Caminho 345" d="M422.424-114.874H421.5v-3.582h.928Z" transform="translate(-303.73 120.775)" fill="#f7f3f3"/>
      <path id="Caminho_346" data-name="Caminho 346" d="M398.92-93.215h-.826a7.051,7.051,0,0,1-.079-1.777c-.018-.578,0-1.157,0-1.813l.821-.037A13.686,13.686,0,0,1,398.92-93.215Z" transform="translate(-289.12 107.336)" fill="#f7f3f3"/>
      <path id="Caminho_347" data-name="Caminho 347" d="M358.4-114.941h1.761v.892H358.4Z" transform="translate(-264.503 118.59)" fill="#f7f3f3"/>
      <path id="Caminho_348" data-name="Caminho 348" d="M462.2-100.417v.809h-.98c-.013-.245-.025-.485-.038-.727A1.379,1.379,0,0,1,462.2-100.417Z" transform="translate(-328.404 109.594)" fill="#f7f3f3"/>
      <path id="Caminho_349" data-name="Caminho 349" d="M421.362-122.082h.989v.845l-.945.042Z" transform="translate(-303.646 123.03)" fill="#f7f3f3"/>
      <path id="Caminho_350" data-name="Caminho 350" d="M398.959-100.318v.835l-.89.039-.041-.874Z" transform="translate(-289.138 109.498)" fill="#f7f3f3"/>
    </g>
  </g>
</svg>
