<svg xmlns="http://www.w3.org/2000/svg" width="28.748" height="26.417" viewBox="0 0 28.748 26.417"><rect width="28.748" height="26.417" fill="#fff" opacity="0"/><path d="M6.92,8.206c.518-.017,1.028,0,1.545-.007h.214V5.52c-.274-.028-.564-.068-.853-.083C7.3,5.415,6.77,5.386,6.237,5.4A3.9,3.9,0,0,0,4,6.092,3.358,3.358,0,0,0,2.652,8.338a7.465,7.465,0,0,0-.093,1.152c-.018.6,0,1.206,0,1.807v.227H0v3H2.547v7.538H5.66V14.527H8.2c.135-1,.26-1.98.391-3.011H5.64s.008-1.485.025-2.131c.026-.879.551-1.152,1.256-1.179" transform="translate(8.984 -1.034)" fill="#fff"/></svg>