<svg xmlns="http://www.w3.org/2000/svg" width="6.093" height="11.667" viewBox="0 0 6.093 11.667">
  <path id="Caminho_37990" data-name="Caminho 37990" d="M-4.358-1.766c.363-.012.721,0,1.084,0h.151V-3.648c-.194-.021-.4-.048-.6-.058-.37-.016-.741-.036-1.113-.026a2.745,2.745,0,0,0-1.571.484A2.356,2.356,0,0,0-7.35-1.676a5.357,5.357,0,0,0-.065.807c-.012.422,0,.844,0,1.265V.554h-1.8v2.1h1.788v5.28h2.185V2.662H-3.46c.094-.7.182-1.388.276-2.109h-.4c-.507,0-1.673,0-1.673,0S-5.251-.488-5.24-.94c.019-.617.387-.807.882-.825" transform="translate(9.216 3.734)" fill="#fff"/>
</svg>
