<svg xmlns="http://www.w3.org/2000/svg" width="11.891" height="4.95" viewBox="0 0 11.891 4.95"><g transform="translate(-509.837 -3143.523)"><path d="M-2.22-4.441A2.474,2.474,0,0,0,.255-6.915,2.475,2.475,0,0,0-2.22-9.391,2.475,2.475,0,0,0-4.694-6.915,2.474,2.474,0,0,0-2.22-4.441" transform="translate(514.531 3152.914)" fill="#fff"/><path d="M-2.22-4.441A2.474,2.474,0,0,0,.255-6.915,2.475,2.475,0,0,0-2.22-9.391,2.475,2.475,0,0,0-4.694-6.915,2.474,2.474,0,0,0-2.22-4.441" transform="translate(521.473 3152.914)" fill="#fff"/></g></svg>