<svg xmlns="http://www.w3.org/2000/svg" width="11.414" height="11.414" viewBox="0 0 11.414 11.414">
  <path id="Caminho_37994" data-name="Caminho 37994" d="M-6.826-5.119a1.906,1.906,0,0,0-1.9-1.9,1.906,1.906,0,0,0-1.9,1.9,1.906,1.906,0,0,0,1.9,1.9,1.906,1.906,0,0,0,1.9-1.9m1.026,0A2.925,2.925,0,0,1-8.728-2.191a2.925,2.925,0,0,1-2.928-2.928A2.925,2.925,0,0,1-8.728-8.048,2.925,2.925,0,0,1-5.8-5.119M-5-8.166a.682.682,0,0,1-.683.684.682.682,0,0,1-.684-.684A.683.683,0,0,1-5.68-8.85.682.682,0,0,1-5-8.166M-8.728-9.8a12.611,12.611,0,0,0-3.366.23,1.827,1.827,0,0,0-.654.431,1.827,1.827,0,0,0-.431.654,12.613,12.613,0,0,0-.229,3.366,12.613,12.613,0,0,0,.229,3.366,1.831,1.831,0,0,0,.431.654,1.81,1.81,0,0,0,.654.43,12.611,12.611,0,0,0,3.366.23,12.612,12.612,0,0,0,3.366-.23,1.824,1.824,0,0,0,.654-.43,1.831,1.831,0,0,0,.431-.654,12.634,12.634,0,0,0,.23-3.366,12.634,12.634,0,0,0-.23-3.366,1.827,1.827,0,0,0-.431-.654,1.813,1.813,0,0,0-.654-.431A12.612,12.612,0,0,0-8.728-9.8m5.707,4.682c0,.788.007,1.568-.037,2.356A3.4,3.4,0,0,1-3.98-.371,3.392,3.392,0,0,1-6.372.551C-7.16.6-7.94.588-8.727.588S-10.3.6-11.083.551a3.4,3.4,0,0,1-2.393-.921A3.4,3.4,0,0,1-14.4-2.764c-.045-.788-.037-1.568-.037-2.356s-.008-1.568.037-2.356a3.4,3.4,0,0,1,.921-2.393,3.392,3.392,0,0,1,2.393-.92c.788-.045,1.568-.037,2.356-.037s1.568-.008,2.356.037a3.391,3.391,0,0,1,2.392.92,3.391,3.391,0,0,1,.922,2.393c.044.788.037,1.568.037,2.356" transform="translate(14.435 10.826)" fill="#fff"/>
</svg>
