<svg xmlns="http://www.w3.org/2000/svg" width="28.748" height="26.417" viewBox="0 0 28.748 26.417"><rect width="28.748" height="26.417" fill="#fff" opacity="0"/><path d="M168.085,13.727c0,1.125.011,2.238-.053,3.364a4.849,4.849,0,0,1-1.312,3.418,4.826,4.826,0,0,1-3.411,1.315c-1.122.063-2.234.053-3.356.053s-2.234.011-3.356-.053a4.827,4.827,0,0,1-3.411-1.315,4.85,4.85,0,0,1-1.313-3.418c-.063-1.125-.053-2.239-.053-3.364s-.011-2.238.053-3.364a4.85,4.85,0,0,1,1.313-3.418A4.822,4.822,0,0,1,156.6,5.631c1.122-.063,2.233-.052,3.356-.052s2.234-.012,3.356.052a4.825,4.825,0,0,1,3.411,1.314,4.845,4.845,0,0,1,1.312,3.418c.063,1.125.053,2.239.053,3.364m-8.132-6.684c-1.187,0-3.727-.1-4.8.329a2.774,2.774,0,0,0-1.546,1.55c-.423,1.074-.328,3.613-.328,4.805s-.1,3.735.328,4.805a2.77,2.77,0,0,0,1.546,1.549c1.071.424,3.605.328,4.8.328s3.727.1,4.8-.328a2.765,2.765,0,0,0,1.545-1.549c.424-1.074.329-3.613.329-4.805s.1-3.735-.329-4.805a2.772,2.772,0,0,0-1.545-1.55c-1.072-.425-3.606-.329-4.8-.329m5.316,2.334A.975.975,0,1,1,164.3,8.4a.976.976,0,0,1,.975.977m-1.144,4.35a4.176,4.176,0,1,1,0-.01v.01m-1.462,0a2.71,2.71,0,1,0-2.71,2.716,2.713,2.713,0,0,0,2.71-2.716" transform="translate(-145.625 -0.165)" fill="#fff"/></svg>