<svg xmlns="http://www.w3.org/2000/svg" width="12.777" height="11.722" viewBox="0 0 12.777 11.722"><g transform="translate(-588.914 -3141.27)"><path d="M-4.535,0A2.809,2.809,0,0,0-7.028,1.279h-.036V0H-9.59V8.115h2.632V4.2c0-1.033.209-2.033,1.58-2.033,1.35,0,1.369,1.181,1.369,2.1v3.85h2.633V3.773C-1.376,1.639-1.869,0-4.535,0" transform="translate(603.067 3144.876)" fill="#fff"/><path d="M247.663-14.462H250.4v-8.115h-2.738Z" transform="translate(341.251 3167.453)" fill="#fff"/><path d="M-1.228,0A1.361,1.361,0,0,0-2.6,1.353,1.36,1.36,0,0,0-1.228,2.7,1.361,1.361,0,0,0,.141,1.353,1.361,1.361,0,0,0-1.228,0" transform="translate(591.511 3141.27)" fill="#fff"/></g></svg>