<svg xmlns="http://www.w3.org/2000/svg" width="116.692" height="24.655" viewBox="0 0 116.692 24.655"><g transform="translate(0.002)"><g transform="translate(-0.002)"><g transform="translate(0)"><path d="M11.075,19.05a1.21,1.21,0,0,1,.144-.4,20.079,20.079,0,0,1,5.031-4.579A10.524,10.524,0,0,0,19.711,18.8a53,53,0,0,0,8.619-3.114,50.231,50.231,0,0,0,8.263-4.712c.006-.161.013-.322.013-.483A10.442,10.442,0,0,0,35.36,5.528a19.628,19.628,0,0,1,6.459-.673,1.274,1.274,0,0,1,.387.108,1.035,1.035,0,0,0-.073-.531.888.888,0,0,0-.761-.458,21.154,21.154,0,0,0-6.531.692,10.492,10.492,0,0,0-18.892,8.417,20.271,20.271,0,0,0-5.174,4.681,1.091,1.091,0,0,0-.159.747.8.8,0,0,0,.46.536Zm7.968-6.25,5.9-8.531A.161.161,0,0,1,25.07,4.2a.082.082,0,0,1,.086.073l.794,4.864-.866,1.252-.568-4.1-3.783,5.66,4.035,0,5.309-7.674a.16.16,0,0,1,.123-.071.083.083,0,0,1,.087.071l1.349,8.527a.118.118,0,0,1-.038.1.147.147,0,0,1-.106.052l-3.069,0-.632,2.376a.055.055,0,0,0,0,.01l0,.015,0,0a.241.241,0,0,1-.211.153h-.758a.125.125,0,0,1-.129-.151h-.006l.006-.023.632-2.376-4.019,0-.633,2.376a.074.074,0,0,0,0,.011l0,.015s0,0,0,0a.243.243,0,0,1-.21.153l-.759,0a.126.126,0,0,1-.13-.151h0l0-.023.629-2.372-3.07,0a.08.08,0,0,1-.079-.05.109.109,0,0,1,.016-.106Z" transform="translate(-9.557)" fill="#fff"/><path d="M33.972,43.99c.8,3.324-6.287,8.514-14.639,12.312C9.755,60.656,1.149,61.5.046,59.07c-.017-.039-.031-.079-.046-.12,0,0-.123,1.787,2.193,2.261,2.395.48,6.234.141,10.792-1.191A10.5,10.5,0,0,0,26.3,54.045c3.731-2.29,6.581-4.734,7.783-6.942A2.7,2.7,0,0,0,33.972,43.99Z" transform="translate(0.002 -39.664)" fill="#fff"/><path d="M170.307,69.439l-.763-5.659-3.783,5.665,1.719,0Z" transform="translate(-149.458 -57.507)" fill="#fff"/></g><path d="M391.653,64.522a6.2,6.2,0,0,1-2.421-.426l.078-1.163a4.3,4.3,0,0,0,2.327.591c1.227,0,2.211-.563,2.211-1.876,0-.906-.875-1.405-1.8-1.906l-1.042-.558a2.805,2.805,0,0,1-1.845-2.42c0-1.832,1.721-2.644,3.354-2.644a6.183,6.183,0,0,1,2.044.312l-.089,1.074a4.5,4.5,0,0,0-1.934-.393c-1.059,0-2.15.393-2.15,1.6,0,.787.712,1.241,1.511,1.663l1.045.56c1.121.609,2.15,1.289,2.15,2.7,0,1.887-1.589,2.885-3.436,2.885" transform="translate(-350.887 -48.797)" fill="#fff"/></g><path d="M467.58,51.18h1.109V52.5H467.58Zm0,3h1.109V61.7H467.58Z" transform="translate(-421.596 -46.147)" fill="#fff"/><g transform="translate(48.729 5.323)"><path d="M497.645,87.938a6.215,6.215,0,0,1-2.145-.345l.088-1.032a4.222,4.222,0,0,0,1.968.469c.771,0,1.6-.393,1.6-1.254,0-1.831-3.647-1.319-3.647-3.631,0-1.452,1.343-2.055,2.586-2.055a5.692,5.692,0,0,1,1.878.328l-.089.925a4.7,4.7,0,0,0-1.694-.362c-.728,0-1.547.225-1.547,1.15,0,1.407,3.65,1.088,3.65,3.612a2.373,2.373,0,0,1-2.648,2.194" transform="translate(-495.5 -77.536)" fill="#fff"/><path d="M555.552,70.3c-1.544,0-1.741-1.12-1.741-2.5V63.464H552.39v-.858h1.421v-1.7l1.091-.378v2.076h1.707v.858H554.9v4.629c0,.667.182,1.259.967,1.259a2.024,2.024,0,0,0,.849-.2l.054.927a3.478,3.478,0,0,1-1.22.222" transform="translate(-546.795 -59.9)" fill="#fff"/><path d="M607.979,84.316a2.467,2.467,0,0,0,2.421,2.742,4.739,4.739,0,0,0,2.129-.529l.094,1.027a6.683,6.683,0,0,1-2.329.392c-2.434,0-3.465-1.707-3.465-3.962,0-1.936,1.182-3.886,3.206-3.886,2.135,0,2.98,1.751,2.98,3.765v.451Zm2.069-3.341c-1.374,0-2.069,1.5-2.069,2.525h3.916c0-1.163-.463-2.525-1.847-2.525" transform="translate(-595.881 -77.545)" fill="#fff"/><path d="M695.3,87.786V82.86c0-1.013-.364-1.814-1.5-1.814-1.371,0-1.871,1.361-1.871,2.674v4.067h-1.1V82.861c0-1.013-.352-1.814-1.484-1.814-1.379,0-1.887,1.361-1.887,2.674v4.067h-1.106V82.031c0-.588-.015-1.182-.073-1.769h1.01l.047,1.3a2.419,2.419,0,0,1,2.252-1.448,2.147,2.147,0,0,1,2.194,1.57,2.5,2.5,0,0,1,2.285-1.57,2.281,2.281,0,0,1,2.344,2.554v5.123h-1.1Z" transform="translate(-667.508 -77.554)" fill="#fff"/><path d="M810.47,87.777l-.052-1.206a2.612,2.612,0,0,1-2.342,1.377c-1.347,0-2.467-.682-2.467-2.133,0-1.935,1.844-2.616,4.159-2.616h.594v-.362c0-1.152-.456-1.861-1.7-1.861a3.817,3.817,0,0,0-2.165.6l-.094-.984a6.4,6.4,0,0,1,2.3-.5c1.875,0,2.739.937,2.739,2.812v3.267a10.636,10.636,0,0,0,.094,1.6H810.47ZM810.364,84h-.21c-1.35,0-3.408.106-3.408,1.767,0,.879.709,1.29,1.529,1.29,1.6,0,2.088-1.2,2.088-2.6V84Z" transform="translate(-775.112 -77.545)" fill="#fff"/><path d="M886.393,64.522c-3.317,0-5.253-1.858-5.253-5.2s2-5.2,5.253-5.2,5.262,1.857,5.262,5.2-1.982,5.2-5.262,5.2m0-8.455c-1.71,0-2.135,1.892-2.135,3.252s.44,3.249,2.135,3.249,2.145-1.827,2.145-3.249-.379-3.252-2.145-3.252" transform="translate(-843.214 -54.12)" fill="#fff"/><path d="M1003.668,64.531c-3.3,0-5.768-1.741-5.768-5.2,0-3.265,2.663-5.2,5.768-5.2a12.045,12.045,0,0,1,2.645.342l-.089,2.117a6.09,6.09,0,0,0-2.012-.39,2.98,2.98,0,0,0-3.19,3.128,2.917,2.917,0,0,0,3.133,3.132,5.486,5.486,0,0,0,2.1-.412l.092,2.077a8.408,8.408,0,0,1-2.675.406" transform="translate(-948.491 -54.129)" fill="#fff"/><path d="M1102.014,65.7h-4.7V55.62h5.143c1.648,0,3.4.544,3.4,2.5a2.315,2.315,0,0,1-2.029,2.392,2.393,2.393,0,0,1,2.256,2.371c0,2.451-2.073,2.825-4.07,2.825m-.7-8.387h-1.147v2.476h1.01c.833,0,1.741-.271,1.741-1.27,0-.936-.815-1.206-1.6-1.206m-.149,4.034h-1v2.663h1.027c.863,0,1.889-.273,1.889-1.332,0-1.149-1-1.332-1.918-1.332" transform="translate(-1038.124 -55.472)" fill="#fff"/><path d="M502.929,215.95a1.343,1.343,0,0,1,1.364,1.011h-.484a.9.9,0,0,0-.885-.554A1.009,1.009,0,0,0,501.9,217.5a1.021,1.021,0,0,0,1.028,1.079.888.888,0,0,0,.9-.6h.488a1.335,1.335,0,0,1-1.387,1.063,1.544,1.544,0,0,1,0-3.088" transform="translate(-500.811 -200.035)" fill="#fff"/></g><path d="M536.61,216.21v3.032h.5v-1.1l-.034-.959,1.848,2.06h.173v-3.027h-.5v1.1l.034.924-1.836-2.035Z" transform="translate(-483.838 -194.946)" fill="#fff"/><g transform="translate(55.831 21.22)"><path d="M569.249,215.95a1.342,1.342,0,0,1,1.364,1.011h-.484a.9.9,0,0,0-.885-.554,1.009,1.009,0,0,0-1.028,1.094,1.021,1.021,0,0,0,1.028,1.079.888.888,0,0,0,.9-.6h.488a1.335,1.335,0,0,1-1.387,1.063,1.544,1.544,0,0,1,0-3.088" transform="translate(-567.71 -215.932)" fill="#fff"/><path d="M602.672,218.422a1.092,1.092,0,1,0-1.032-1.089,1.007,1.007,0,0,0,1.032,1.089m-.009.475a1.564,1.564,0,1,1,1.546-1.564,1.486,1.486,0,0,1-1.546,1.564" transform="translate(-597.843 -215.77)" fill="#fff"/><path d="M638.052,218.422a1.092,1.092,0,1,0-1.033-1.089,1.007,1.007,0,0,0,1.033,1.089m-.009.475a1.564,1.564,0,1,1,1.546-1.564,1.486,1.486,0,0,1-1.546,1.564" transform="translate(-629.744 -215.77)" fill="#fff"/><path d="M674.943,217.966a.587.587,0,0,0,.583-.622.579.579,0,0,0-.583-.618h-.755v1.239Zm-1.252,1.347V216.29h1.252a1.059,1.059,0,1,1,0,2.117H674.2v.907h-.505Z" transform="translate(-663.267 -216.239)" fill="#fff"/></g><rect width="0.428" height="3.404" transform="translate(70.02 21.251)" fill="#fff"/><g transform="translate(72.081 21.22)"><path d="M734.482,218.422a1.092,1.092,0,1,0-1.032-1.089,1.007,1.007,0,0,0,1.032,1.089m-.009.475a1.564,1.564,0,1,1,1.546-1.564,1.486,1.486,0,0,1-1.546,1.564" transform="translate(-732.94 -215.77)" fill="#fff"/><path d="M769.849,215.95a1.342,1.342,0,0,1,1.364,1.011h-.484a.9.9,0,0,0-.885-.554,1.009,1.009,0,0,0-1.028,1.094,1.021,1.021,0,0,0,1.028,1.079.888.888,0,0,0,.9-.6h.488a1.335,1.335,0,0,1-1.387,1.063,1.544,1.544,0,0,1,0-3.088" transform="translate(-764.831 -215.932)" fill="#fff"/><path d="M804.031,217.989v.9h.821a.464.464,0,0,0,.337-.808.629.629,0,0,0-.393-.1h-.765Zm0-1.243v.834h.691c.289,0,.488-.112.493-.406s-.2-.428-.493-.428h-.691Zm1.322,1a.692.692,0,0,1,.488.7.865.865,0,0,1-.958.89H803.53V216.31h1.226a.834.834,0,0,1,.95.851.616.616,0,0,1-.354.583" transform="translate(-796.588 -216.257)" fill="#fff"/></g><rect width="0.428" height="3.404" transform="translate(82.974 21.251)" fill="#fff"/><path d="M865.122,217.941c.022.341.393.466.722.466s.7-.1.7-.471c0-.4-.41-.437-.759-.471-.554-.047-1.1-.225-1.1-.829s.549-.916,1.136-.916,1.118.26,1.131.877h-.475c-.022-.325-.363-.428-.661-.428-.276,0-.634.113-.634.453s.341.385.691.432c.613.069,1.174.191,1.174.885s-.626.917-1.192.917c-.592.013-1.209-.281-1.222-.917h.493Z" transform="translate(-779.598 -194.505)" fill="#fff"/><path d="M894.9,216.3v3.023h1.867v-.458h-1.36v-.881h1.26v-.445h-1.26v-.8h1.334V216.3Z" transform="translate(-806.891 -195.028)" fill="#fff"/><g transform="translate(90.296 21.215)"><path d="M918.643,217.941c.022.341.393.466.722.466s.7-.1.7-.471c0-.4-.41-.437-.76-.471-.553-.047-1.1-.225-1.1-.829s.549-.916,1.136-.916,1.118.26,1.131.877h-.475c-.022-.325-.363-.428-.661-.428-.276,0-.634.113-.634.453s.34.385.69.432c.613.069,1.174.191,1.174.885s-.627.917-1.192.917c-.591.013-1.209-.281-1.221-.917h.492Z" transform="translate(-918.15 -215.72)" fill="#fff"/><path d="M948.159,215.95a1.342,1.342,0,0,1,1.364,1.011h-.484a.9.9,0,0,0-.885-.554,1.01,1.01,0,0,0-1.029,1.094,1.021,1.021,0,0,0,1.029,1.079.888.888,0,0,0,.9-.6h.488a1.335,1.335,0,0,1-1.387,1.063,1.544,1.544,0,0,1,0-3.088" transform="translate(-943.82 -215.927)" fill="#fff"/><path d="M981.59,218.422a1.092,1.092,0,1,0-1.031-1.089,1.008,1.008,0,0,0,1.031,1.089m-.008.475a1.564,1.564,0,1,1,1.546-1.564,1.486,1.486,0,0,1-1.546,1.564" transform="translate(-973.962 -215.765)" fill="#fff"/><path d="M1016.962,218.422a1.092,1.092,0,1,0-1.033-1.089,1.007,1.007,0,0,0,1.033,1.089m-.009.475a1.564,1.564,0,1,1,1.546-1.564,1.486,1.486,0,0,1-1.546,1.564" transform="translate(-1005.854 -215.765)" fill="#fff"/><path d="M1053.853,217.966a.587.587,0,0,0,.583-.622.579.579,0,0,0-.583-.618h-.755v1.239Zm-1.252,1.347V216.29h1.252a1.059,1.059,0,1,1,0,2.117h-.747v.907h-.506Z" transform="translate(-1039.377 -216.234)" fill="#fff"/></g></g></svg>