<svg xmlns="http://www.w3.org/2000/svg" width="29.73" height="31.487" viewBox="0 0 29.73 31.487"><g transform="translate(0 0)"><g transform="translate(0 3.707)"><path d="M405.573,433.452c.691,2.848-5.419,7.294-12.615,10.547-8.252,3.733-15.667,4.457-16.617,2.375-.016-.034-.029-.069-.041-.1,0,0-.106,1.531,1.89,1.937,3.034.6,8.765-.307,15.194-3.216,5.835-2.64,10.706-5.991,12.284-8.873a2.3,2.3,0,0,0-.1-2.666" transform="translate(-376.299 -433.452)" fill="#f7f3f3"/><path d="M381.09,464.5c-1.535,0-1.916,1.689-1.916,2.905s.394,2.9,1.916,2.9c1.589,0,1.929-1.634,1.929-2.9s-.339-2.905-1.929-2.905m0,7.551c-2.975,0-4.714-1.661-4.714-4.646,0-2.918,1.793-4.647,4.714-4.647,2.975,0,4.727,1.662,4.727,4.647,0,2.944-1.779,4.646-4.727,4.646" transform="translate(-376.328 -444.275)" fill="#f7f3f3"/><path d="M397.9,472.054c-2.962,0-5.176-1.553-5.176-4.646,0-2.918,2.39-4.647,5.176-4.647a10.8,10.8,0,0,1,2.377.311l-.081,1.891a5.505,5.505,0,0,0-1.807-.351,2.674,2.674,0,0,0-2.866,2.8,2.585,2.585,0,0,0,2.812,2.8,5.017,5.017,0,0,0,1.888-.365l.081,1.85a7.612,7.612,0,0,1-2.4.365" transform="translate(-382.364 -444.275)" fill="#f7f3f3"/><path d="M410.1,468.095h-.9v2.378h.924c.775,0,1.7-.243,1.7-1.189,0-1.027-.9-1.189-1.725-1.189m.136-3.607H409.2V466.7h.91c.747,0,1.562-.243,1.562-1.135,0-.838-.734-1.08-1.44-1.08m.625,7.5h-4.225v-9.01h4.619c1.48,0,3.057.486,3.057,2.229a2.068,2.068,0,0,1-1.82,2.134,2.145,2.145,0,0,1,2.024,2.121c0,2.189-1.861,2.526-3.655,2.526" transform="translate(-387.501 -444.354)" fill="#f7f3f3"/></g><path d="M398.6,440.955l1.482,0,2.437,0-.657-4.85Z" transform="translate(-384.533 -430.723)" fill="#f7f3f3"/><g transform="translate(0.899 0)"><path d="M395.834,438.625a.131.131,0,0,1-.092.044l-2.645,0-.546,2.037,0,.008,0,.013,0,0a.208.208,0,0,1-.182.133H391.7a.108.108,0,0,1-.111-.131h0l0-.019.546-2.037h-3.464l-.546,2.038s0,0,0,.009l0,.011h0a.211.211,0,0,1-.182.133h-.655a.109.109,0,0,1-.112-.132h0l.005-.018.542-2.032-2.647,0a.073.073,0,0,1-.069-.043.094.094,0,0,1,.014-.091l5.087-7.312a.135.135,0,0,1,.108-.062.07.07,0,0,1,.074.062l.684,4.169-.747,1.074-.489-3.519-3.262,4.852,3.478,0,4.576-6.577a.135.135,0,0,1,.107-.061.07.07,0,0,1,.074.061l1.163,7.306a.109.109,0,0,1-.033.09m9.064-7.251a.761.761,0,0,0-.656-.393,18.247,18.247,0,0,0-5.618.59,9.031,9.031,0,0,0-16.284,7.21,17.478,17.478,0,0,0-4.465,4.015.937.937,0,0,0-.137.639.691.691,0,0,0,.4.46,1.017,1.017,0,0,1,.124-.345,17.208,17.208,0,0,1,4.341-3.928,9.014,9.014,0,0,0,3.075,4.134,46.505,46.505,0,0,0,7.154-2.579,51.173,51.173,0,0,0,7.294-3.989c.015-.206.024-.413.024-.623a8.9,8.9,0,0,0-1.077-4.257,16.948,16.948,0,0,1,5.555-.574,1.112,1.112,0,0,1,.335.093.882.882,0,0,0-.063-.454" transform="translate(-377.724 -427.574)" fill="#f7f3f3"/><path d="M400.6,450.709a44.639,44.639,0,0,1-5.569,2.1,9.053,9.053,0,0,0,10.572-4.677,52.76,52.76,0,0,1-5,2.58" transform="translate(-384.116 -435.164)" fill="#f7f3f3"/></g></g></svg>