<svg xmlns="http://www.w3.org/2000/svg" width="50.18" height="30.508" viewBox="0 0 50.18 30.508"><g transform="translate(0 0)"><g transform="translate(0 22.897)"><path d="M531.459,470.984a5.627,5.627,0,0,1-2.331-.464l-.055,1.557a10.02,10.02,0,0,0,2.629.332c1.524,0,3.214-.553,3.214-2.342,0-1.237-.684-1.745-1.778-2.088l-.807-.254c-.4-.121-1.149-.319-1.149-.783,0-.63.894-.719,1.381-.719a5.3,5.3,0,0,1,1.9.343l.055-1.514a9.247,9.247,0,0,0-2.132-.254c-1.458,0-3.358.442-3.358,2.242a2.032,2.032,0,0,0,1.635,2.01l.762.254c.431.144,1.315.387,1.315.884,0,.651-.751.795-1.281.795" transform="translate(-529.029 -464.799)" fill="#f7f3f3"/></g><path d="M545.654,470.934h-3.48v-1.59h3.259V467.93h-3.259v-1.514h3.391v-1.424h-5.523v7.368h5.612Z" transform="translate(-533.096 -441.973)" fill="#f7f3f3"/><g transform="translate(10.484 3.784)"><path d="M552.627,470.984a5.626,5.626,0,0,1-2.331-.464l-.056,1.557a10.033,10.033,0,0,0,2.63.332c1.524,0,3.214-.553,3.214-2.342,0-1.237-.684-1.745-1.779-2.088l-.806-.254c-.4-.121-1.148-.319-1.148-.783,0-.63.9-.719,1.381-.719a5.3,5.3,0,0,1,1.9.343l.055-1.514a9.243,9.243,0,0,0-2.131-.254c-1.458,0-3.358.442-3.358,2.242a2.032,2.032,0,0,0,1.635,2.01l.763.254c.43.144,1.314.387,1.314.884,0,.651-.751.795-1.281.795" transform="translate(-547.33 -445.686)" fill="#f7f3f3"/><path d="M564.858,472.416a6.172,6.172,0,0,0,1.955-.3l-.066-1.514a4.037,4.037,0,0,1-1.536.3,2.107,2.107,0,0,1-2.286-2.286,2.181,2.181,0,0,1,2.331-2.288,4.447,4.447,0,0,1,1.469.288l.067-1.547a8.783,8.783,0,0,0-1.933-.255c-2.265,0-4.209,1.415-4.209,3.8,0,2.529,1.8,3.8,4.209,3.8" transform="translate(-551.19 -445.692)" fill="#f7f3f3"/><path d="M575.019,466.241c1.292,0,1.569,1.336,1.569,2.375s-.276,2.374-1.569,2.374c-1.237,0-1.558-1.381-1.558-2.374s.309-2.375,1.558-2.375m0,6.175a3.8,3.8,0,1,0-3.833-3.8,3.5,3.5,0,0,0,3.833,3.8" transform="translate(-555.081 -445.692)" fill="#f7f3f3"/><path d="M588.308,470.99c-1.238,0-1.558-1.381-1.558-2.374s.31-2.375,1.558-2.375c1.292,0,1.569,1.336,1.569,2.375s-.276,2.374-1.569,2.374m0-6.176a3.517,3.517,0,0,0-3.834,3.8,3.839,3.839,0,1,0,3.834-3.8" transform="translate(-559.988 -445.692)" fill="#f7f3f3"/><path d="M601.031,468.537h-.585v-2.165h.751c.707,0,1.425.221,1.425,1.06,0,.983-.8,1.105-1.591,1.105m1.183-3.545h-3.889v7.368h2.133v-2.452h1.734a2.461,2.461,0,1,0,.023-4.915" transform="translate(-565.102 -445.758)" fill="#f7f3f3"/><path d="M575.365,434.5c.7,2.907-5.5,7.446-12.8,10.767-8.376,3.81-15.9,4.549-16.867,2.424-.015-.034-.028-.07-.041-.105,0,0-.107,1.563,1.918,1.978,3.08.617,8.9-.313,15.423-3.284,5.923-2.695,10.867-6.116,12.469-9.058a2.358,2.358,0,0,0-.1-2.722" transform="translate(-545.651 -434.497)" fill="#f7f3f3"/></g><path d="M568.284,442.156l1.5,0,2.474,0-.667-4.95Z" transform="translate(-543.525 -431.711)" fill="#f7f3f3"/><path d="M565.48,439.778a.135.135,0,0,1-.094.045l-2.685,0-.554,2.079,0,.008,0,.013h0a.213.213,0,0,1-.185.135h-.664a.11.11,0,0,1-.113-.134h0l0-.02.554-2.079h-3.516l-.554,2.08s0,.005,0,.009l0,.011h0a.213.213,0,0,1-.184.135H556.8a.111.111,0,0,1-.114-.134h0l.005-.019.55-2.074-2.686,0a.073.073,0,0,1-.07-.044.1.1,0,0,1,.014-.093l5.163-7.465a.136.136,0,0,1,.109-.062.071.071,0,0,1,.075.062l.695,4.256-.759,1.1-.5-3.593-3.311,4.953,3.531,0,4.644-6.714a.138.138,0,0,1,.109-.062.07.07,0,0,1,.075.062l1.181,7.459a.113.113,0,0,1-.034.091m9.2-7.4a.774.774,0,0,0-.665-.4,18.447,18.447,0,0,0-5.7.6,9.179,9.179,0,0,0-16.529,7.36,17.774,17.774,0,0,0-4.532,4.1.963.963,0,0,0-.139.653.705.705,0,0,0,.4.47,1.044,1.044,0,0,1,.126-.352,17.521,17.521,0,0,1,4.406-4.011,9.208,9.208,0,0,0,3.122,4.22,47.1,47.1,0,0,0,7.262-2.633,51.824,51.824,0,0,0,7.4-4.072c.015-.21.025-.421.025-.635a9.134,9.134,0,0,0-1.093-4.346,17.085,17.085,0,0,1,5.639-.585,1.1,1.1,0,0,1,.34.094.9.9,0,0,0-.064-.464" transform="translate(-535.701 -428.497)" fill="#f7f3f3"/><path d="M570.321,452.114a45.344,45.344,0,0,1-5.652,2.14,9.162,9.162,0,0,0,10.73-4.774,53.4,53.4,0,0,1-5.078,2.634" transform="translate(-542.19 -436.245)" fill="#f7f3f3"/></g></svg>