<svg xmlns="http://www.w3.org/2000/svg" width="106.133" height="15.255" viewBox="0 0 106.133 15.255">
  <g id="Grupo_16758" data-name="Grupo 16758" transform="translate(-1329.367 -3103.213)">
    <g id="Grupo_536" data-name="Grupo 536" transform="translate(1427.207 3106.466)">
      <path id="Exclusão_2" data-name="Exclusão 2" d="M3.81,7.792A3.909,3.909,0,0,1,0,4.7a3.9,3.9,0,0,0,1.572,2.38L5.616,3.9,1.572.722A3.839,3.839,0,0,0,.557,1.759,3.9,3.9,0,1,1,3.81,7.792Z" transform="translate(0.084)" fill="#fff" stroke="rgba(0,0,0,0)" stroke-miterlimit="10" stroke-width="1"/>
      <path id="Caminho_360" data-name="Caminho 360" d="M241.857,369.2a2.289,2.289,0,0,0-2.289-2.289,2.143,2.143,0,0,0-.225.045,3.734,3.734,0,0,0,0,4.487,2.159,2.159,0,0,0,.225.045A2.289,2.289,0,0,0,241.857,369.2Z" transform="translate(-238.594 -365.307)" fill="#fff"/>
    </g>
    <g id="Grupo_539" data-name="Grupo 539" transform="translate(1329.367 3103.213)">
      <path id="Caminho_361" data-name="Caminho 361" d="M175.5,369.4a5.527,5.527,0,0,1-5.521-5.521h0a5.526,5.526,0,0,1,5.521-5.521h.009a5.468,5.468,0,0,1,3.348,1.136.888.888,0,1,1-1.08,1.41,3.718,3.718,0,0,0-.343-.235l-.023-.013a3.74,3.74,0,0,0-1.9-.522H175.5a3.746,3.746,0,1,0,0,7.492h.006a3.752,3.752,0,0,0,1.9-.522l.023-.013a3.724,3.724,0,0,0,.343-.234.888.888,0,1,1,1.08,1.41,5.471,5.471,0,0,1-3.348,1.136H175.5Zm23.726,3.323v-3.645a4.3,4.3,0,0,0,1.567.322,5.522,5.522,0,1,0-3.356-9.908.888.888,0,1,0,1.079,1.409,3.747,3.747,0,1,1,2.277,6.723,3.4,3.4,0,0,1-1.567-.508v-.319a.888.888,0,1,0-1.775,0v5.926a.888.888,0,0,0,1.775,0m-11.089-4.808a5.523,5.523,0,1,0,0-8.069,5.523,5.523,0,1,0,0,8.069m-2.924-7.681a3.737,3.737,0,0,1,2.771,2.685.888.888,0,1,0,1.716-.454,5.505,5.505,0,0,0-.475-1.2,3.748,3.748,0,1,1-1,3.289.888.888,0,0,0-1.747.316,5.531,5.531,0,0,0,.57,1.631,3.747,3.747,0,1,1-2.683-6.363,3.706,3.706,0,0,1,.85.1" transform="translate(-111.077 -358.351)" fill="#fff"/>
      <g id="Grupo_538" data-name="Grupo 538" transform="translate(0 0.533)">
        <g id="Grupo_537" data-name="Grupo 537">
          <path id="Caminho_362" data-name="Caminho 362" d="M67.156,366.712c.165,1.436,1.785,2.093,3.385,2.093,1.62,0,3.282-.657,3.282-2.073,0-1.7-1.949-1.825-3.262-1.99-1.969-.226-4.083-.574-4.083-2.605,0-2.051,1.969-2.81,4-2.81,2.052,0,4,.841,4,2.6h-.9c0-1.23-1.539-1.784-3.077-1.784-1.5,0-3.22.574-3.118,1.969,0,1.518,2.154,1.662,3.3,1.764,2.031.267,4.143.636,4.082,2.851,0,1.969-2.01,2.893-4.247,2.893-2.092,0-4.1-.82-4.328-2.913Z" transform="translate(-66.192 -359.307)" fill="#fff"/>
          <path id="Caminho_363" data-name="Caminho 363" d="M87.652,369.528A5.119,5.119,0,1,1,92.8,364.42,4.964,4.964,0,0,1,87.652,369.528Zm.02-.9a4.018,4.018,0,0,0,4.144-4.205,4.206,4.206,0,1,0-4.144,4.205Z" transform="translate(-73.211 -359.291)" fill="#fff"/>
          <path id="Caminho_364" data-name="Caminho 364" d="M101.107,359.455c1.744-.349,2.318.513,2.318,1.928a3.684,3.684,0,0,1,3.631-2.092,2.873,2.873,0,0,1,3.057,2.4,3.806,3.806,0,0,1,3.836-2.4c2.544,0,3.263,1.949,3.263,4.164v3.508c0,1.149-.1,1.908,1.436,1.641v.78c-1.97.389-2.441-.472-2.441-2.277v-3.652c0-1.784-.575-3.3-2.544-3.3a3.132,3.132,0,0,0-3.221,3.447v5.785h-.985V363.6c0-1.888-.595-3.426-2.646-3.426a3.162,3.162,0,0,0-3.323,3.426v5.785H102.5v-6.913c0-1.806.082-2.441-1.395-2.277Z" transform="translate(-81.292 -359.291)" fill="#fff"/>
          <path id="Caminho_365" data-name="Caminho 365" d="M137.46,369.528a5.119,5.119,0,1,1,5.15-5.108A4.964,4.964,0,0,1,137.46,369.528Zm.021-.9a4.018,4.018,0,0,0,4.143-4.205,4.205,4.205,0,1,0-4.143,4.205Z" transform="translate(-94.752 -359.291)" fill="#fff"/>
          <path id="Caminho_366" data-name="Caminho 366" d="M152.53,366.712c.165,1.436,1.785,2.093,3.385,2.093,1.62,0,3.282-.657,3.282-2.073,0-1.7-1.949-1.825-3.262-1.99-1.969-.226-4.083-.574-4.083-2.605,0-2.051,1.969-2.81,4-2.81,2.052,0,4,.841,4,2.6h-.9c0-1.23-1.539-1.784-3.077-1.784-1.5,0-3.22.574-3.118,1.969,0,1.518,2.154,1.662,3.3,1.764,2.031.267,4.143.636,4.082,2.851,0,1.969-2.01,2.893-4.246,2.893-2.093,0-4.1-.82-4.328-2.913Z" transform="translate(-103.115 -359.307)" fill="#fff"/>
        </g>
      </g>
    </g>
  </g>
</svg>
