<svg xmlns="http://www.w3.org/2000/svg" width="12.213" height="12.213" viewBox="0 0 12.213 12.213">
  <path id="icons8-spotify" d="M8.107,1.982a6.107,6.107,0,1,0,6.107,6.107A6.114,6.114,0,0,0,8.107,1.982Zm2.585,8.851a.4.4,0,0,1-.552.11,5.358,5.358,0,0,0-2.7-.729,6.117,6.117,0,0,0-1.732.245A.4.4,0,1,1,5.457,9.7a6.873,6.873,0,0,1,1.984-.286,6.056,6.056,0,0,1,3.14.863A.4.4,0,0,1,10.691,10.833Zm.794-1.63a.455.455,0,0,1-.387.215.451.451,0,0,1-.24-.069A6.261,6.261,0,0,0,7.391,8.46,10.538,10.538,0,0,0,5.234,8.7a.456.456,0,1,1-.248-.877,10.383,10.383,0,0,1,2.323-.265A7.389,7.389,0,0,1,11.34,8.576.456.456,0,0,1,11.486,9.2ZM12.278,7.3a.531.531,0,0,1-.727.189A8.627,8.627,0,0,0,7.307,6.5H7.291a12.438,12.438,0,0,0-2.516.252.531.531,0,0,1-.241-1.034,13.287,13.287,0,0,1,2.758-.279h.018a9.674,9.674,0,0,1,4.78,1.135A.531.531,0,0,1,12.278,7.3Z" transform="translate(-2 -1.982)" fill="#fbfbfb"/>
</svg>
