<svg xmlns="http://www.w3.org/2000/svg" width="28.451" height="26.205" viewBox="0 0 28.451 26.205"><path d="M0,0H28.451V26.2H0Z" fill="#fff" opacity="0"/><path d="M37.963,7.068l.145.2,6.763,9.045q1.491,1.992,2.98,3.986a.225.225,0,0,0,.2.117h2.017a1.085,1.085,0,0,0,.111-.015c-.057-.078-.1-.142-.149-.2q-2.064-2.767-4.131-5.532L40.3,7.172a.226.226,0,0,0-.207-.105H38.117Zm4.9,8.34-.293.311-5.181,5.6a.668.668,0,0,1-.092.1.254.254,0,0,1-.126.056h-1.3a.439.439,0,0,1-.062-.017l6.4-6.918L35.837,6.011c.082,0,.133-.008.185-.008h4.565a.294.294,0,0,1,.268.133Q42.423,8.245,44,10.348q.419.561.839,1.119c.028.038.06.074.113.142a1.091,1.091,0,0,1,.093-.129q2.486-2.685,4.97-5.371a.277.277,0,0,1,.228-.1c.382.006.766,0,1.149,0a1.4,1.4,0,0,1,.162.008l-5.97,6.448c2.246,3,4.479,5.989,6.729,9-.061,0-.1.01-.135.01H47.524a.24.24,0,0,1-.214-.119l-4.345-5.81c-.031-.043-.064-.084-.1-.133" transform="translate(-30.182 -0.631)" fill="#fff"/></svg>