<svg xmlns="http://www.w3.org/2000/svg" width="29.599" height="29.599" viewBox="0 0 29.599 29.599">
  <g id="Grupo_16764" data-name="Grupo 16764" transform="translate(-1384.893 -1263.875)">
    <path id="Caminho_286" data-name="Caminho 286" d="M9.722,8.563,6.314,5.07,9.722,1.627c.37-.37.1-.677-.266-1.046S8.744-.09,8.374.28L4.967,3.723,1.534.15C1.165-.219.895.157.478.581S-.171,1.14.187,1.5,3.619,5.07,3.619,5.07.586,8.163.187,8.563s-.091.621.291,1,.687.72,1.057.351L4.967,6.417,8.374,9.91c.37.37.712.019,1.082-.351S10.1,8.932,9.722,8.563Z" transform="translate(1404.728 1273.723) rotate(90)" fill="#fff"/>
    <path id="Caminho_287" data-name="Caminho 287" d="M10.465,20.93A10.465,10.465,0,1,1,20.93,10.465,10.477,10.477,0,0,1,10.465,20.93Zm0-18.837a8.372,8.372,0,1,0,8.372,8.372A8.382,8.382,0,0,0,10.465,2.093Z" transform="translate(1399.693 1263.875) rotate(45)" fill="#fff"/>
  </g>
</svg>
