<svg xmlns="http://www.w3.org/2000/svg" width="28.748" height="26.417" viewBox="0 0 28.748 26.417"><rect width="28.748" height="26.417" fill="#fff" opacity="0"/><path d="M119.712,16.11c1.589-.828,3.163-1.645,4.76-2.473l-4.76-2.489Zm-4.2,2.75a1.774,1.774,0,0,1-1.177-1.145c-.51-1.4-.66-7.273.32-8.427a1.9,1.9,0,0,1,1.28-.684c2.641-.282,10.807-.241,11.751.1a1.854,1.854,0,0,1,1.152,1.112c.56,1.452.577,6.73-.07,8.126a1.792,1.792,0,0,1-.831.838c-.983.52-11.129.512-12.425.085" transform="translate(-107.325 0.515)" fill="#fff"/></svg>