<svg xmlns="http://www.w3.org/2000/svg" width="10.754" height="7.536" viewBox="0 0 10.754 7.536">
  <path id="Caminho_37991" data-name="Caminho 37991" d="M-.993-6.563a1.245,1.245,0,0,1-.825-.8c-.358-.982-.464-5.095.224-5.9a1.337,1.337,0,0,1,.9-.48,50.488,50.488,0,0,1,8.247.067,1.3,1.3,0,0,1,.809.779,12.9,12.9,0,0,1-.051,5.692,1.25,1.25,0,0,1-.582.587c-.691.364-7.811.359-8.721.06M1.952-8.49c1.114-.58,2.22-1.152,3.34-1.732-1.122-.586-2.227-1.161-3.34-1.743Z" transform="translate(2.1 13.879)" fill="#fff"/>
</svg>
